<svg width="1434px" height="855px" viewBox="0 0 1434 855" version="1.1" xmlns="http://www.w3.org/2000/svg" xmlns:xlink="http://www.w3.org/1999/xlink">
    <defs>
        <linearGradient x1="0%" y1="0%" x2="100%" y2="100%" id="linearGradient-1">
            <stop stop-color="#F2C314" offset="0%"></stop>
            <stop stop-color="#FC3832" offset="100%"></stop>
        </linearGradient>
        <rect id="path-2" x="274" y="268" width="796" height="1052" rx="40"></rect>
        <filter x="-3.5%" y="-1.9%" width="107.0%" height="105.3%" filterUnits="objectBoundingBox" id="filter-3">
            <feOffset dx="0" dy="8" in="SourceAlpha" result="shadowOffsetOuter1"></feOffset>
            <feGaussianBlur stdDeviation="8" in="shadowOffsetOuter1" result="shadowBlurOuter1"></feGaussianBlur>
            <feColorMatrix values="0 0 0 0 0   0 0 0 0 0   0 0 0 0 0  0 0 0 0.15 0" type="matrix" in="shadowBlurOuter1"></feColorMatrix>
        </filter>
        <linearGradient x1="0%" y1="0%" x2="100%" y2="100%" id="linearGradient-4">
            <stop stop-color="#9C09DB" offset="0%"></stop>
            <stop stop-color="#1C0FD7" offset="100%"></stop>
        </linearGradient>
        <rect id="path-5" x="258" y="178" width="971" height="1131" rx="40"></rect>
        <filter x="-2.9%" y="-1.8%" width="105.8%" height="105.0%" filterUnits="objectBoundingBox" id="filter-6">
            <feOffset dx="0" dy="8" in="SourceAlpha" result="shadowOffsetOuter1"></feOffset>
            <feGaussianBlur stdDeviation="8" in="shadowOffsetOuter1" result="shadowBlurOuter1"></feGaussianBlur>
            <feColorMatrix values="0 0 0 0 0   0 0 0 0 0   0 0 0 0 0  0 0 0 0.2 0" type="matrix" in="shadowBlurOuter1"></feColorMatrix>
        </filter>
    </defs>
    <g  stroke="none" stroke-width="1" fill="none" fill-rule="evenodd">
        <g >
            <g id="home-background" transform="translate(-324.000000, -636.000000)">
                <g id="Rectangle-5" opacity="0.9" transform="translate(672.000000, 794.000000) rotate(65.000000) translate(-672.000000, -794.000000) ">
                    <use fill="black" fill-opacity="1" filter="url(#filter-3)" xlink:href="#path-2"></use>
                    <use fill="url(#linearGradient-1)" fill-rule="evenodd" xlink:href="#path-2"></use>
                </g>
                <g id="Rectangle-5-Copy" opacity="0.9" transform="translate(743.500000, 743.500000) rotate(45.000000) translate(-743.500000, -743.500000) ">
                    <use fill="black" fill-opacity="1" filter="url(#filter-6)" xlink:href="#path-5"></use>
                    <use fill="url(#linearGradient-4)" fill-rule="evenodd" xlink:href="#path-5"></use>
                </g>
                <g id="header-blocks" transform="translate(1052.000000, 677.000000)">
                    <g id="Rectangle-3_Isometric" transform="translate(0.000000, 163.000000)">
                        <path d="M45.5502544,95.2699863 L0.550254421,72.6104118 C0.212862888,72.4405196 -4.52520568e-15,72.0950069 -1.88737914e-15,71.7172551 L-6.66133815e-16,26.6231704 C-7.3376919e-16,26.0708857 0.44771525,25.6231704 1,25.6231704 C1.15620226,25.6231704 1.31023248,25.6597625 1.44974558,25.7300137 L46.4497456,48.3895882 C46.7871371,48.5594804 47,48.9049931 47,49.2827449 L47,94.3768296 C47,94.9291143 46.5522847,95.3768296 46,95.3768296 C45.8437977,95.3768296 45.6897675,95.3402375 45.5502544,95.2699863 Z"  fill="#3726B0"></path>
                        <path d="M49.4497456,95.2699863 L94.4497456,72.6104118 C94.7871371,72.4405196 95,72.0950069 95,71.7172551 L95,26.6231704 C95,26.0708857 94.5522847,25.6231704 94,25.6231704 C93.8437977,25.6231704 93.6897675,25.6597625 93.5502544,25.7300137 L48.5502544,48.3895882 C48.2128629,48.5594804 48,48.9049931 48,49.2827449 L48,94.3768296 C48,94.9291143 48.4477153,95.3768296 49,95.3768296 C49.1562023,95.3768296 49.3102325,95.3402375 49.4497456,95.2699863 Z"  fill="#9013FE"></path>
                        <path d="M1.78885438,22.6055728 L46.5527864,0.223606798 C46.8343139,0.0828430524 47.1656861,0.0828430524 47.4472136,0.223606798 L92.2111456,22.6055728 C92.7051241,22.8525621 92.9053485,23.4532351 92.6583592,23.9472136 C92.5615955,24.140741 92.404673,24.2976635 92.2111456,24.3944272 L47.4472136,46.7763932 C47.1656861,46.9171569 46.8343139,46.9171569 46.5527864,46.7763932 L1.78885438,24.3944272 C1.29487588,24.1474379 1.09465154,23.5467649 1.34164079,23.0527864 C1.43840449,22.859259 1.59532698,22.7023365 1.78885438,22.6055728 Z"  fill="#B57EF2"></path>
                    </g>
                    <g id="Rectangle-3_Isometric" transform="translate(420.000000, 300.000000)">
                        <path d="M45.5502544,95.2699863 L0.550254421,72.6104118 C0.212862888,72.4405196 -4.52520568e-15,72.0950069 -1.88737914e-15,71.7172551 L-6.66133815e-16,26.6231704 C-7.3376919e-16,26.0708857 0.44771525,25.6231704 1,25.6231704 C1.15620226,25.6231704 1.31023248,25.6597625 1.44974558,25.7300137 L46.4497456,48.3895882 C46.7871371,48.5594804 47,48.9049931 47,49.2827449 L47,94.3768296 C47,94.9291143 46.5522847,95.3768296 46,95.3768296 C45.8437977,95.3768296 45.6897675,95.3402375 45.5502544,95.2699863 Z"  fill="#3726B0"></path>
                        <path d="M49.4497456,95.2699863 L94.4497456,72.6104118 C94.7871371,72.4405196 95,72.0950069 95,71.7172551 L95,26.6231704 C95,26.0708857 94.5522847,25.6231704 94,25.6231704 C93.8437977,25.6231704 93.6897675,25.6597625 93.5502544,25.7300137 L48.5502544,48.3895882 C48.2128629,48.5594804 48,48.9049931 48,49.2827449 L48,94.3768296 C48,94.9291143 48.4477153,95.3768296 49,95.3768296 C49.1562023,95.3768296 49.3102325,95.3402375 49.4497456,95.2699863 Z"  fill="#9013FE"></path>
                        <path d="M1.78885438,22.6055728 L46.5527864,0.223606798 C46.8343139,0.0828430524 47.1656861,0.0828430524 47.4472136,0.223606798 L92.2111456,22.6055728 C92.7051241,22.8525621 92.9053485,23.4532351 92.6583592,23.9472136 C92.5615955,24.140741 92.404673,24.2976635 92.2111456,24.3944272 L47.4472136,46.7763932 C47.1656861,46.9171569 46.8343139,46.9171569 46.5527864,46.7763932 L1.78885438,24.3944272 C1.29487588,24.1474379 1.09465154,23.5467649 1.34164079,23.0527864 C1.43840449,22.859259 1.59532698,22.7023365 1.78885438,22.6055728 Z"  fill="#B57EF2"></path>
                    </g>
                    <g id="Rectangle-3_Isometric" transform="translate(382.000000, 52.000000)">
                        <path d="M75.5481581,156.264652 L0.548158132,118.277639 C0.211920789,118.107337 -3.97931505e-16,117.762447 -4.4408921e-16,117.38554 L1.11022302e-15,41.6274465 C1.04258765e-15,41.0751618 0.44771525,40.6274465 1,40.6274465 C1.15699587,40.6274465 1.31178615,40.6644112 1.45184187,40.7353485 L76.4518419,78.7223615 C76.7880792,78.8926635 77,79.2375532 77,79.6144595 L77,155.372553 C77,155.924838 76.5522847,156.372553 76,156.372553 C75.8430041,156.372553 75.6882138,156.335589 75.5481581,156.264652 Z"  fill="#3726B0"></path>
                        <path d="M80.4518419,156.264652 L155.451842,118.277639 C155.788079,118.107337 156,117.762447 156,117.38554 L156,41.6274465 C156,41.0751618 155.552285,40.6274465 155,40.6274465 C154.843004,40.6274465 154.688214,40.6644112 154.548158,40.7353485 L79.5481581,78.7223615 C79.2119208,78.8926635 79,79.2375532 79,79.6144595 L79,155.372553 C79,155.924838 79.4477153,156.372553 80,156.372553 C80.1569959,156.372553 80.3117862,156.335589 80.4518419,156.264652 Z"  fill="#9013FE"></path>
                        <path d="M2.78885438,37.6055728 L77.5527864,0.223606798 C77.8343139,0.0828430524 78.1656861,0.0828430524 78.4472136,0.223606798 L153.211146,37.6055728 C153.705124,37.8525621 153.905348,38.4532351 153.658359,38.9472136 C153.561596,39.140741 153.404673,39.2976635 153.211146,39.3944272 L78.4472136,76.7763932 C78.1656861,76.9171569 77.8343139,76.9171569 77.5527864,76.7763932 L2.78885438,39.3944272 C2.29487588,39.1474379 2.09465154,38.5467649 2.34164079,38.0527864 C2.43840449,37.859259 2.59532698,37.7023365 2.78885438,37.6055728 Z"  fill="#B57EF2"></path>
                    </g>
                    <g id="Rectangle-3_Isometric" transform="translate(231.000000, 378.000000)">
                        <path d="M45.5502544,95.2699863 L0.550254421,72.6104118 C0.212862888,72.4405196 -4.52520568e-15,72.0950069 -1.88737914e-15,71.7172551 L-6.66133815e-16,26.6231704 C-7.3376919e-16,26.0708857 0.44771525,25.6231704 1,25.6231704 C1.15620226,25.6231704 1.31023248,25.6597625 1.44974558,25.7300137 L46.4497456,48.3895882 C46.7871371,48.5594804 47,48.9049931 47,49.2827449 L47,94.3768296 C47,94.9291143 46.5522847,95.3768296 46,95.3768296 C45.8437977,95.3768296 45.6897675,95.3402375 45.5502544,95.2699863 Z"  fill="#3726B0"></path>
                        <path d="M49.4497456,95.2699863 L94.4497456,72.6104118 C94.7871371,72.4405196 95,72.0950069 95,71.7172551 L95,26.6231704 C95,26.0708857 94.5522847,25.6231704 94,25.6231704 C93.8437977,25.6231704 93.6897675,25.6597625 93.5502544,25.7300137 L48.5502544,48.3895882 C48.2128629,48.5594804 48,48.9049931 48,49.2827449 L48,94.3768296 C48,94.9291143 48.4477153,95.3768296 49,95.3768296 C49.1562023,95.3768296 49.3102325,95.3402375 49.4497456,95.2699863 Z"  fill="#9013FE"></path>
                        <path d="M1.78885438,22.6055728 L46.5527864,0.223606798 C46.8343139,0.0828430524 47.1656861,0.0828430524 47.4472136,0.223606798 L92.2111456,22.6055728 C92.7051241,22.8525621 92.9053485,23.4532351 92.6583592,23.9472136 C92.5615955,24.140741 92.404673,24.2976635 92.2111456,24.3944272 L47.4472136,46.7763932 C47.1656861,46.9171569 46.8343139,46.9171569 46.5527864,46.7763932 L1.78885438,24.3944272 C1.29487588,24.1474379 1.09465154,23.5467649 1.34164079,23.0527864 C1.43840449,22.859259 1.59532698,22.7023365 1.78885438,22.6055728 Z"  fill="#B57EF2"></path>
                    </g>
                    <g id="Rectangle-3_Isometric" transform="translate(246.000000, 265.000000)">
                        <path d="M21.537434,48.2369221 L0.537433993,37.2804003 C0.207119693,37.1080624 3.15425105e-15,36.7663848 3.10862447e-15,36.3938155 L4.4408921e-16,14.6496628 C3.76453835e-16,14.097378 0.44771525,13.6496628 1,13.6496628 C1.16107252,13.6496628 1.31976155,13.6885712 1.46256601,13.7630779 L22.462566,24.7195997 C22.7928803,24.8919376 23,25.2336152 23,25.6061845 L23,47.3503372 C23,47.902622 22.5522847,48.3503372 22,48.3503372 C21.8389275,48.3503372 21.6802384,48.3114288 21.537434,48.2369221 Z"  fill="#3726B0"></path>
                        <path d="M25.462566,48.2369221 L46.462566,37.2804003 C46.7928803,37.1080624 47,36.7663848 47,36.3938155 L47,14.6496628 C47,14.097378 46.5522847,13.6496628 46,13.6496628 C45.8389275,13.6496628 45.6802384,13.6885712 45.537434,13.7630779 L24.537434,24.7195997 C24.2071197,24.8919376 24,25.2336152 24,25.6061845 L24,47.3503372 C24,47.902622 24.4477153,48.3503372 25,48.3503372 C25.1610725,48.3503372 25.3197616,48.3114288 25.462566,48.2369221 Z"  fill="#9013FE"></path>
                        <path d="M1.74410198,11.1093947 L23.0452228,0.232226633 C23.3308647,0.0863669863 23.6691353,0.0863669863 23.9547772,0.232226633 L45.255898,11.1093947 C45.7477657,11.3605612 45.9428926,11.9629095 45.6917261,12.4547772 C45.5959611,12.6423171 45.4434379,12.7948402 45.255898,12.8906053 L23.9547772,23.7677734 C23.6691353,23.913633 23.3308647,23.913633 23.0452228,23.7677734 L1.74410198,12.8906053 C1.25223427,12.6394388 1.05710738,12.0370905 1.30827387,11.5452228 C1.40403893,11.3576829 1.55656206,11.2051598 1.74410198,11.1093947 Z"  fill="#B57EF2"></path>
                    </g>
                    <g id="Rectangle-3_Isometric" transform="translate(141.000000, 71.000000)">
                        <path d="M21.537434,48.2369221 L0.537433993,37.2804003 C0.207119693,37.1080624 3.15425105e-15,36.7663848 3.10862447e-15,36.3938155 L4.4408921e-16,14.6496628 C3.76453835e-16,14.097378 0.44771525,13.6496628 1,13.6496628 C1.16107252,13.6496628 1.31976155,13.6885712 1.46256601,13.7630779 L22.462566,24.7195997 C22.7928803,24.8919376 23,25.2336152 23,25.6061845 L23,47.3503372 C23,47.902622 22.5522847,48.3503372 22,48.3503372 C21.8389275,48.3503372 21.6802384,48.3114288 21.537434,48.2369221 Z"  fill="#3726B0"></path>
                        <path d="M25.462566,48.2369221 L46.462566,37.2804003 C46.7928803,37.1080624 47,36.7663848 47,36.3938155 L47,14.6496628 C47,14.097378 46.5522847,13.6496628 46,13.6496628 C45.8389275,13.6496628 45.6802384,13.6885712 45.537434,13.7630779 L24.537434,24.7195997 C24.2071197,24.8919376 24,25.2336152 24,25.6061845 L24,47.3503372 C24,47.902622 24.4477153,48.3503372 25,48.3503372 C25.1610725,48.3503372 25.3197616,48.3114288 25.462566,48.2369221 Z"  fill="#9013FE"></path>
                        <path d="M1.74410198,11.1093947 L23.0452228,0.232226633 C23.3308647,0.0863669863 23.6691353,0.0863669863 23.9547772,0.232226633 L45.255898,11.1093947 C45.7477657,11.3605612 45.9428926,11.9629095 45.6917261,12.4547772 C45.5959611,12.6423171 45.4434379,12.7948402 45.255898,12.8906053 L23.9547772,23.7677734 C23.6691353,23.913633 23.3308647,23.913633 23.0452228,23.7677734 L1.74410198,12.8906053 C1.25223427,12.6394388 1.05710738,12.0370905 1.30827387,11.5452228 C1.40403893,11.3576829 1.55656206,11.2051598 1.74410198,11.1093947 Z"  fill="#B57EF2"></path>
                    </g>
                    <g id="Group-3" transform="translate(414.000000, 210.500000) scale(-1, 1) translate(-414.000000, -210.500000) translate(64.000000, 0.000000)" opacity="0.396595982" stroke="#9013FE" stroke-dasharray="10" stroke-linecap="square">
                        <g >
                            <path d="M579.070191,270.042211 L660.575726,269.461828 C668.818107,269.403136 675.468917,262.704799 675.468917,254.462209 L675.468917,226.789334 C675.468917,218.505063 682.184646,211.789334 690.468917,211.789334 L692.541249,211.789334"  transform="translate(635.805720, 240.915772) rotate(30.000000) translate(-635.805720, -240.915772) "></path>
                            <path d="M506.197118,270.012252 C514.318479,274.526383 524.703224,271.847497 529.392094,264.028792 L543.542011,240.433764 C548.230882,232.615059 558.615626,229.936173 566.736987,234.450304 L568.768567,235.579526" ></path>
                            <path d="M39,403.5 L208.918189,403.5 C217.20246,403.5 223.918189,396.784271 223.918189,388.5 L223.918189,354.5 C223.918189,346.215729 230.633918,339.5 238.918189,339.5 L248.5,339.5" ></path>
                            <path d="M0.34532169,13.0086475 L242.212742,82.3630141" ></path>
                            <path d="M325.109739,357 L440.109739,420" ></path>
                            <path d="M468.289667,390.681803 L528.398859,390.681803 C536.68313,390.681803 543.398859,383.966074 543.398859,375.681803 L543.398859,324.026398 C543.398859,318.512099 547.869082,314.041875 553.383382,314.041875"  transform="translate(510.836525, 352.361839) scale(1, -1) rotate(-388.000000) translate(-510.836525, -352.361839) "></path>
                            <path d="M378.979275,212.682106 L510.336392,212.682106 C518.620663,212.682106 525.336392,205.966377 525.336392,197.682106 L525.336392,44.5033751 C525.336392,36.2191038 532.052121,29.5033751 540.336392,29.5033751 L544.792147,29.5033751"  transform="translate(461.885711, 121.092740) rotate(30.000000) translate(-461.885711, -121.092740) "></path>
                            <path d="M596.679406,170.604734 L663.002371,170.604734 C671.286642,170.604734 678.002371,163.889005 678.002371,155.604734 L678.002371,131.951173 C678.002371,125.980676 682.842415,121.140632 688.812912,121.140632"  transform="translate(642.746159, 145.872683) scale(1, -1) rotate(-30.000000) translate(-642.746159, -145.872683) "></path>
                        </g>
                    </g>
                </g>
            </g>
        </g>
    </g>
</svg>