<svg width="98px" height="66px" viewBox="0 0 98 66" version="1.1" xmlns="http://www.w3.org/2000/svg" xmlns:xlink="http://www.w3.org/1999/xlink">
    <defs></defs>
    <g  stroke="none" stroke-width="1" fill="none" fill-rule="evenodd">
        <g  transform="translate(-671.000000, -1569.000000)">
            <g  transform="translate(202.000000, 759.000000)">
                <g id="backend" transform="translate(359.000000, 772.000000)">
                    <g >
                        <g id="icon" transform="translate(110.000000, 38.000000)">
                            <g id="web">
                                <rect  stroke="#9013FE" fill="#F9E6FD" x="0.5" y="2.5" width="74" height="50"></rect>
                                <polygon  fill="#F9E6FD" points="0 2 4.32752091 0 77 0 74.5857943 2"></polygon>
                                <polygon  fill="#3726B0" transform="translate(75.500000, 27.000000) scale(-1, 1) rotate(90.000000) translate(-75.500000, -27.000000) " points="49 28 50.4682558 26 102 26 100.54361 28"></polygon>
                                <g transform="translate(6.000000, 6.000000)" fill="#361CB3" font-family="MyriadPro-Regular, Myriad Pro" font-size="16" font-weight="normal">
                                    <text>
                                        <tspan x="-0.78" y="12">&lt;/&gt; </tspan>
                                    </text>
                                </g>
                            </g>
                            <g  transform="translate(22.000000, 20.000000)" fill-rule="nonzero">
                                <path d="M48.8906335,12.9908265 C48.8890097,12.714115 48.6942515,12.463575 48.380193,12.2822846 C48.06623,12.1009942 47.6331579,11.9889532 47.155384,11.9889532 L45.8318109,11.9886667 C45.3612008,11.9888577 44.9268869,11.8784405 44.609963,11.6955263 C44.3947641,11.5712593 44.2338187,11.4136569 44.1522476,11.2345634 C44.0172827,10.9387485 43.8625458,10.647614 43.6898519,10.3612554 L43.7028421,5.7981423 C43.7028421,5.80931774 43.70246,5.81180117 43.7017914,5.80712086 C43.7017914,5.80712086 43.7017914,5.80712086 43.7017914,5.80721637 C43.7065673,5.54636062 43.5373119,5.28426316 43.1924016,5.08511111 L40.1759883,3.34365302 C39.4984893,2.95251267 38.4034873,2.95222612 37.7304776,3.34336647 L36.7968986,3.88590058 C36.2388908,4.21017934 35.3743704,4.26978168 34.6895166,4.03796296 C33.1021267,3.49991813 31.3785302,3.08279727 29.5563606,2.80780507 C29.2466004,2.76100195 28.9738051,2.66825536 28.7587018,2.5439883 C28.4417778,2.36107407 28.2497895,2.1098655 28.2482612,1.83707018 L28.243963,1.07074074 C28.2423392,0.79402924 28.0475809,0.543489279 27.7335224,0.36219883 C27.4195595,0.180908382 26.9864873,0.0688674464 26.5086179,0.0688674464 L22.257462,0.0688674464 C21.3017232,0.0688674464 20.5303314,0.517222222 20.5334834,1.07083626 L20.5377817,1.83716569 C20.5403606,2.29516764 20.0055634,2.69223002 19.2406667,2.80790058 C19.2030331,2.81382261 19.1648265,2.81993567 19.1265244,2.82557115 L21.7525614,8.43420858 L21.7307836,16.0950195 C22.5847018,15.9630156 23.4808382,15.8920468 24.4072534,15.8923333 C27.2632943,15.8921423 29.8529396,16.5625731 31.7307953,17.6467817 C31.9665302,17.7828928 32.1909942,17.925499 32.4035185,18.0741228 C33.3585887,17.4132437 34.072384,16.6312495 34.4637154,15.7728421 L44.1551131,17.2756043 L44.1333353,24.9364152 C44.14346,24.9145419 44.1540624,24.8923821 44.1640916,24.8706043 C44.3614288,24.4272164 45.0449454,24.1161189 45.835154,24.1156413 L47.1586316,24.1159279 C48.1143704,24.1159279 48.8857622,23.6675731 48.8826101,23.1140546 L48.9043879,15.4533392 L48.9043879,15.4532437 L48.8906335,12.9908265 Z"  fill="#F75549"></path>
                                <path d="M7.24158869,24.2298791 L17.173115,18.4582904 C16.9370936,18.3219883 16.7123431,18.1790955 16.4996277,18.0303762 C17.8390565,17.103961 19.6550175,16.4167193 21.7312612,16.0950195 L21.753039,8.43420858 L19.1270019,2.82557115 C17.3504893,3.10104094 15.6703528,3.51147563 14.1219337,4.03805848 C13.4396589,4.26978168 12.5744698,4.21017934 12.0128324,3.8859961 L11.0731404,3.34346199 C10.3956413,2.95232164 9.30063938,2.9527037 8.62753411,3.34384405 L5.63079727,5.08530214 C5.29591618,5.27996491 5.1288577,5.53461209 5.12866667,5.78964133 C5.12866667,5.78925926 5.12838012,5.78897271 5.12838012,5.78859064 L5.1150078,10.4951696 C4.97679532,10.7383548 4.85128655,10.9849786 4.74010526,11.2349454 C4.54353216,11.6780468 3.85915595,11.9894308 3.06904288,11.9891442 L1.7455653,11.9895263 C0.789826511,11.9895263 0.0184346979,12.4378811 0.0215867446,12.9913996 L0.0215867446,12.9928324 L0,20.651924 L0.0138499025,23.1143411 C0.0154736842,23.3910526 0.210327485,23.6415926 0.524290448,23.822883 C0.838253411,24.0041735 1.27132554,24.1162144 1.74919493,24.1162144 L3.07276803,24.1159279 C3.54328265,24.1161189 3.97721442,24.2265361 4.29404288,24.4094503 C4.50933723,24.5337173 4.67037817,24.6914152 4.75223587,24.8706998 C4.88710526,25.1663236 5.04174659,25.4573626 5.21434503,25.7435302 L5.21787914,24.5113665 L5.20145029,30.3066433 C5.20078168,30.564729 5.37108772,30.8232924 5.71217739,31.0202476 L7.22000195,31.8908811 L7.24158869,24.2298791"  fill="#3726B0"></path>
                                <path d="M19.1269064,2.82538012 L21.7529435,8.43401754 C17.3423704,9.11753411 14.1043587,11.4496667 14.120501,14.2222261 C14.129193,15.8763821 15.2954503,17.3744639 17.1730195,18.4582904 L7.24158869,24.2298791 L5.73376413,23.3592456 C5.05626511,22.9681053 5.05215789,22.3338752 5.72516764,21.9427349 L6.65874659,21.4002008 C7.21675439,21.075922 7.31733333,20.5746511 6.91444444,20.1790214 C5.98048343,19.2612982 5.25484405,18.2642963 4.77391813,17.2097934 C4.69206043,17.0304133 4.53101949,16.8727154 4.31572515,16.7485439 C3.9989922,16.5656296 3.5648694,16.4552125 3.09445029,16.4550214 L1.77087719,16.455308 C1.2930078,16.455308 0.859935673,16.3432671 0.54597271,16.1619766 C0.232009747,15.9806862 0.0371559454,15.7302417 0.0355321637,15.4534347 L0.0216822612,12.9910175 C0.018625731,12.4374035 0.790017544,11.9891442 1.74566082,11.9891442 L3.0691384,11.9887622 C3.85915595,11.9890487 4.54343665,11.6776647 4.74020078,11.2345634 C5.20918713,10.1800604 5.92355556,9.18296296 6.8472963,8.26533528 C7.24521832,7.8694191 7.1401501,7.36805263 6.57841715,7.0438694 L5.63872515,6.50133528 C4.96122612,6.11019493 4.95778752,5.47625146 5.63070175,5.08511111 L8.6274386,3.34365302 C9.30054386,2.95251267 10.3955458,2.95222612 11.0729493,3.34327096 L12.0126413,3.88580507 C12.5742788,4.21008382 13.4394678,4.26968616 14.1217427,4.03786745 C15.6702573,3.5112846 17.3503938,3.10075439 19.1269064,2.82538012 Z"  fill="#B57EF2"></path>
                                <path d="M14.120501,14.2221306 C14.1280468,15.668347 15.0206491,16.9950721 16.4995322,18.0302807 C17.838961,17.1038655 19.654922,16.4166238 21.7311657,16.094924 L21.7529435,8.43411306 C17.3423704,9.11753411 14.1043587,11.4496667 14.120501,14.2221306 Z"  fill="#3726B0"></path>
                                <path d="M1.77078168,16.455308 C1.29291228,16.455308 0.859840156,16.3432671 0.545877193,16.1619766 C0.23191423,15.9806862 0.0370604288,15.7302417 0.0354366472,15.4534347 L0.0215867446,12.9910175 L0,20.651924 L0.0138499025,23.1142456 C0.0154736842,23.3909571 0.210327485,23.6414971 0.524290448,23.8227875 C0.838253411,24.004078 1.27132554,24.1161189 1.74919493,24.1161189 L3.07276803,24.1158324 L3.09445029,16.4550214 L1.77078168,16.455308 Z"  fill="#9013FE"></path>
                                <path d="M43.1924971,5.08501559 C43.8699961,5.47615595 43.8734347,6.11009942 43.2005205,6.50123977 L42.2669415,7.04377388 C41.7089337,7.36805263 41.609501,7.86932359 42.0118168,8.26523977 C42.9457778,9.18296296 43.6714172,10.1799649 44.1523431,11.2344678 C44.2339142,11.4136569 44.3948596,11.5711637 44.6100585,11.6954308 C44.9269825,11.878345 45.3612963,11.9887622 45.8319064,11.9885712 L47.1554795,11.9888577 C47.6333489,11.9888577 48.0664211,12.1008986 48.380384,12.2821891 C48.694347,12.4634795 48.8892963,12.713924 48.8908246,12.990731 L48.9046745,15.4531481 C48.907731,16.0067622 48.1363392,16.4550214 47.1806959,16.4550214 L45.8572183,16.4547349 C45.0672008,16.4550214 44.3834932,16.7662144 44.1861559,17.2096979 C44.1760312,17.2315712 44.1655244,17.253731 44.1553996,17.2756043 L34.4640019,15.7728421 C34.6896121,15.2780663 34.8088168,14.7585517 34.8057602,14.2222261 C34.7967817,12.5678791 33.6308109,11.0700838 31.7529552,9.98597076 C29.8750994,8.90176218 27.2856452,8.23133138 24.4295088,8.23152242 C23.5029981,8.23123587 22.6069571,8.30220468 21.753039,8.43420858 L19.1270019,2.82557115 C19.1652086,2.81993567 19.2034152,2.81382261 19.2411442,2.80790058 C20.0060409,2.69223002 20.5409337,2.29516764 20.5382593,1.83716569 L20.533961,1.07083626 C20.5309045,0.517222222 21.3022963,0.0688674464 22.2579396,0.068962963 L26.5090955,0.068962963 C26.9869649,0.068962963 27.420037,0.181003899 27.734,0.362294347 C28.047963,0.543584795 28.2429123,0.79402924 28.2444405,1.07083626 L28.2487388,1.83716569 C28.2502671,2.10996101 28.4422554,2.36116959 28.7591793,2.54408382 C28.9743782,2.66825536 29.2469825,2.76109747 29.5568382,2.80790058 C31.3789123,3.0829883 33.1026043,3.50001365 34.6898986,4.03805848 C35.3747524,4.26978168 36.2392729,4.21017934 36.7972807,3.8859961 L37.7308596,3.34346199 C38.4038694,2.95232164 39.4989669,2.95260819 40.1763704,3.34374854 L43.1924971,5.08501559 Z"  fill="#FF6342"></path>
                                <g  transform="translate(41.740741, 5.730994)" fill="#FF5023">
                                    <path d="M1.9611462,0.0760311891 C1.9565614,0.327621832 1.79017154,0.57825731 1.45968421,0.770245614 L0.526105263,1.31277973 C-0.0319025341,1.63705848 -0.131335283,2.13832943 0.270980507,2.53424561 C0.942939571,3.19445614 1.50639181,3.89592982 1.94911111,4.63026121 L1.96211909,0.0671481481 C1.96219688,0.0782280702 1.96191033,0.080711501 1.9611462,0.0760311891 Z" ></path>
                                    <path d="M5.43976413,10.7241228 L4.11628655,10.7238363 C3.32626901,10.7241228 2.6425614,11.0353158 2.44522417,11.4787992 C2.43509942,11.5006725 2.42459259,11.5228324 2.41446784,11.5447057 L2.39269006,19.2055166 C2.40281481,19.1836433 2.41332164,19.1614834 2.42344639,19.1397057 C2.62078363,18.6963177 3.30430019,18.3852203 4.09450877,18.3847427 L5.41798635,18.3850292 C6.37372515,18.3850292 7.14511696,17.9366745 7.14196491,17.3831559 L7.16375232,9.72234503 C7.16689474,10.2758635 6.39559844,10.7241228 5.43976413,10.7241228 Z" ></path>
                                </g>
                                <g  transform="translate(5.062378, 5.730994)" fill="#9013FE">
                                    <path d="M1.78482261,2.53434113 C2.18274464,2.13842495 2.07767641,1.63705848 1.51594347,1.31287524 L0.576251462,0.770341131 C0.235830409,0.573863548 0.0658109162,0.315968811 0.0661929825,0.0584561404 C0.0661929825,0.0580740741 0.0659064327,0.0577875244 0.0659064327,0.0574054581 L0.0525341131,4.76398441 C0.497736842,3.98103509 1.0802924,3.23447758 1.78482261,2.53434113 Z" ></path>
                                    <path d="M0.671385965,17.628347 C0.330391813,17.4313918 0.159894737,17.172924 0.160658869,16.9147427 L0.138881092,24.5755536 C0.138212476,24.8336394 0.308518519,25.0922027 0.649608187,25.2891579 L2.15743275,26.1597914 L2.17921053,18.4989805 L0.671385965,17.628347 Z" ></path>
                                </g>
                                <path d="M5.22303704,22.6457368 C5.22303704,22.6465965 5.22322807,22.6475517 5.22322807,22.6484113 C5.222846,22.3929045 5.38980897,22.1375887 5.72516764,21.9428304 L6.65874659,21.4002963 C6.95179142,21.2299903 7.11732164,21.0108752 7.15142105,20.7838324 L7.1517076,20.611807 C7.13002534,20.4628012 7.05246589,20.3147505 6.91444444,20.1792125 C5.98048343,19.2614893 5.25474854,18.2644873 4.77391813,17.2099844 C4.69206043,17.0306043 4.53101949,16.8729064 4.31572515,16.7487349 C3.9989922,16.5658207 3.5648694,16.4554035 3.09445029,16.4552125 L3.07267251,24.1160234 C3.54318713,24.1162144 3.97721442,24.2266316 4.29394737,24.4095458 C4.50924172,24.5338129 4.67028265,24.6915107 4.75214035,24.8707953 C4.88700975,25.1664191 5.04165107,25.4574581 5.21424951,25.7436257 L5.22303704,22.6457368 Z"  fill="#3726B0"></path>
                                <g  transform="translate(7.163743, 15.760234)" fill="#F18700">
                                    <path d="M29.7286725,16.4587466 L30.6683645,17.0012807 C31.3458635,17.3924211 32.4402924,17.3924211 33.1133977,17.0012807 L36.1101345,15.2598226 C36.4446335,15.0654464 36.6121696,14.8109903 36.6128382,14.556152 L36.6262105,9.84479727 C36.7511462,9.62453606 36.8671988,9.40198246 36.9700702,9.17618129 L36.991848,1.51537037 L27.3004503,0.0126081871 C26.1348616,2.56958674 22.1197271,4.45317349 17.3332963,4.45288694 C14.4768733,4.45288694 11.8876101,3.78264717 10.0094678,2.69824756 L0.0779415205,8.46974074" ></path>
                                    <path d="M0.0778460039,8.46964522 L0.0560682261,16.1304561 L1.5645614,17.0013762 C2.24206043,17.3925166 3.33648928,17.3925166 4.00959454,17.0013762 L4.94317349,16.4588421 C5.50118129,16.1345634 6.36684795,16.074961 7.05112865,16.3071618 C8.63851852,16.8452066 10.362115,17.2623275 12.1840936,17.5373197 C12.4937583,17.5840273 12.7665536,17.6767739 12.9817524,17.8010409 C13.2986764,17.9839552 13.4906647,18.2349727 13.492193,18.507386 L13.5139708,10.846575 L13.518269,11.6135731 L13.518269,11.6136686 L13.4964912,19.2742885 C13.498115,19.551 13.6928733,19.80154 14.0069318,19.9828304 C14.3208947,20.1641209 14.7539669,20.2761618 15.2318363,20.2761618 L19.4829922,20.2761618 C20.438731,20.2761618 21.2101228,19.827807 21.2069708,19.274193 L21.2093587,18.4176004 C21.271922,17.9987602 21.7858012,17.6448713 22.499692,17.5372242 C24.3187096,17.2621365 26.0376257,16.8451111 27.6189025,16.3070663 C28.3006043,16.074961 29.1669396,16.1344678 29.728577,16.4587466" ></path>
                                </g>
                                <g  transform="translate(7.163743, 22.637427)" fill="#FF9911">
                                    <path d="M36.1316257,0.721723197 L33.1348889,2.46318129 C32.4618791,2.85432164 31.3673548,2.85432164 30.6899513,2.46318129 L29.7502593,1.92064717 L29.728577,9.58145809 L30.668269,10.1239922 C31.345768,10.5151326 32.4401969,10.5151326 33.1132066,10.1239922 L36.1099435,8.38253411 C36.4444425,8.18815789 36.6119786,7.93370175 36.6126472,7.67886355 L36.634425,0.0180526316 C36.6336608,0.272890838 36.4661248,0.527251462 36.1316257,0.721723197 Z" ></path>
                                    <path d="M4.0312768,2.46337232 C3.35826706,2.85451267 2.26374269,2.85451267 1.58633918,2.46337232 L0.0779415205,1.59245224 L0.0561637427,9.25326316 L1.56465692,10.1241832 C2.24215595,10.5153236 3.3365848,10.5153236 4.00959454,10.1241832 L4.94317349,9.58164912 L4.96485575,1.92083821 L4.0312768,2.46337232 Z" ></path>
                                </g>
                                <g  transform="translate(12.035088, 24.261209)" fill="#F18700">
                                    <path d="M24.8789142,0.296961014 L24.8571365,7.95777193 C24.295499,7.63349318 23.4291637,7.57389084 22.747462,7.80609162 C21.1661852,8.34413645 19.447269,8.76125731 17.6282515,9.03624951 C16.8639279,9.15163353 16.328462,9.54898246 16.3311265,10.0062203 L16.3529142,2.34540936 C16.3503353,1.88807602 16.8858012,1.49082261 17.6500292,1.3754386 C19.4690468,1.10035088 21.187963,0.683325536 22.7692398,0.145280702 C23.4509415,-0.086920078 24.3173723,-0.0273177388 24.8789142,0.296961014 Z" ></path>
                                    <path d="M8.6424347,2.34540936 L8.62065692,10.0062203 C8.61912865,9.73390253 8.42704483,9.48288499 8.11021637,9.29987524 C7.89501754,9.17560819 7.62231774,9.08276608 7.3125575,9.036154 C5.49048343,8.76106628 3.76679142,8.34404094 2.17959259,7.8059961 C1.49521637,7.57389084 0.629645224,7.63339766 0.0716374269,7.95767641 L0.0934152047,0.296865497 C0.651423002,-0.0274132554 1.51708967,-0.0870155945 2.20137037,0.145185185 C3.78876023,0.683230019 5.51235673,1.10035088 7.33433528,1.37534308 C7.644,1.42205068 7.91679532,1.51479727 8.13199415,1.63906433 C8.44891813,1.82207407 8.64100195,2.07318713 8.6424347,2.34540936 Z" ></path>
                                </g>
                                <g  transform="translate(20.631579, 26.553606)" fill="#FF9911">
                                    <polygon  points="0.160356725 0.820009747 0.0468567251 8.48082066 0.0243567251 7.71382261 0.137356725 0.0530116959"></polygon>
                                    <path d="M6.03683821,1.82188304 L1.78568226,1.82188304 C1.30781287,1.82188304 0.874740741,1.70984211 0.560777778,1.52855166 C0.246814815,1.34726121 0.0518654971,1.09681676 0.050337232,0.820009747 L0.0285594542,8.48082066 C0.0301832359,8.75753216 0.22494152,9.00807212 0.539,9.18936257 C0.85305848,9.37065302 1.28603509,9.48269396 1.76390448,9.48269396 L6.01506043,9.48269396 C6.97079922,9.48269396 7.74219103,9.03433918 7.73903899,8.48082066 L7.76082582,0.820009747 C7.76387329,1.37362378 6.99248148,1.82188304 6.03683821,1.82188304 Z" ></path>
                                </g>
                                <path d="M44.1553041,17.2755088 C43.6862222,18.3057505 42.9830292,19.280306 42.0789649,20.1789259 C41.6804698,20.5745556 41.7867797,21.0758265 42.3484172,21.4001053 L43.2881092,21.9426394 C43.9656082,22.3337797 43.9684737,22.9680097 43.2954639,23.3591501 L40.2987271,25.1006082 C39.6256218,25.4917485 38.531193,25.4917485 37.8537895,25.1006082 L36.9140975,24.5580741 C36.35246,24.2337953 35.4861248,24.174193 34.804423,24.4063938 C33.2231462,24.9444386 31.50423,25.3615595 29.6852125,25.6365517 C28.9208889,25.7519357 28.385423,26.1492846 28.3880975,26.6065224 L28.3923957,27.3735205 C28.3954522,27.9271345 27.6240604,28.3753938 26.6684172,28.3754893 L22.4172612,28.3754893 C21.9393918,28.3754893 21.5063197,28.2634483 21.1923567,28.0821579 C20.8783938,27.9008674 20.68354,27.650423 20.6819162,27.373616 L20.6776179,26.6066179 C20.6760897,26.3343002 20.4840058,26.0832827 20.1671774,25.9002729 C19.9519786,25.7760058 19.6792788,25.6831637 19.3695185,25.6365517 C17.5474444,25.3614639 15.8237524,24.9444386 14.2365536,24.4063938 C13.5521774,24.1742885 12.6866062,24.2337953 12.1285984,24.5580741 L11.1950195,25.1006082 C10.5220097,25.4917485 9.42748538,25.4917485 8.75008187,25.1006082 L7.24168421,24.2296881 L17.1732105,18.4580994 C19.0513528,19.5424035 21.6405205,20.2127388 24.497039,20.2127388 C29.2834698,20.2130253 33.2985088,18.3295341 34.464193,15.77246 L44.1553041,17.2755088 Z"  fill="#FFA834"></path>
                                <path d="M31.7311774,17.6465906 C31.9669123,17.7827018 32.1913762,17.925308 32.4039006,18.0739318 C33.3589708,17.4130526 34.0727661,16.6310585 34.4640975,15.7726511 L34.5688791,15.7888889 L34.4640975,15.7726511 C34.6548441,15.3544795 34.7685088,14.9183509 34.7975458,14.469614 L34.7983099,14.0209727 C34.7000234,12.4465731 33.5543977,11.0257641 31.7529552,9.98568421 C29.8752904,8.90147563 27.2856452,8.23104483 24.4295088,8.23123587 C23.5029981,8.23094932 22.6069571,8.30191813 21.753039,8.43392203 L21.7312612,16.0947329 C22.5851793,15.962729 23.4813158,15.8917602 24.407731,15.8920468 C27.2637719,15.8919513 29.8533216,16.5625731 31.7311774,17.6465906 Z"  fill="#F75549"></path>
                                <path d="M42.0788694,20.1788304 C41.6803743,20.57446 41.7866842,21.075731 42.3482261,21.4000097 L43.2879181,21.9425439 C43.650499,22.1519162 43.8179396,22.4309201 43.7938694,22.7049571 C43.7953977,22.6884327 43.7980721,22.6719084 43.7980721,22.655384 L43.7896667,25.6048402 C43.9146023,25.3845789 44.030655,25.1620253 44.1335263,24.9362242 L44.1553041,17.2754133 C43.6861267,18.3057505 42.9829337,19.2802105 42.0788694,20.1788304 Z"  fill="#F18700"></path>
                            </g>
                            <g  transform="translate(61.000000, 38.000000)" fill-rule="nonzero">
                                <path d="M36.9174172,9.80939961 C36.916191,9.60045419 36.7691287,9.41127096 36.5319825,9.27437817 C36.2949084,9.13748538 35.9678947,9.05288304 35.6071267,9.05288304 L34.607694,9.05266667 C34.2523353,9.05281092 33.924384,8.9694347 33.6850741,8.83131579 C33.522577,8.73748148 33.4010468,8.61847563 33.3394522,8.48324172 C33.23754,8.25987135 33.1206979,8.04003509 32.9902963,7.82380507 L33.0001053,4.37818908 C33.0001053,4.38662768 32.9998168,4.38850292 32.9993119,4.38496881 C32.9993119,4.38496881 32.9993119,4.38496881 32.9993119,4.38504094 C33.0029181,4.18806823 32.8751131,3.99015789 32.6146706,3.83977778 L30.3369708,2.52479922 C29.8253899,2.22944834 28.9985517,2.22923197 28.4903606,2.52458285 L27.7854133,2.93425146 C27.3640604,3.17911501 26.7112593,3.22412086 26.1941248,3.04907407 C24.9954834,2.64279532 23.6939922,2.32782651 22.3180682,2.12017934 C22.0841676,2.08483821 21.8781793,2.01480507 21.7157544,1.92097076 C21.4764444,1.78285185 21.3314737,1.59316374 21.3303197,1.38717544 L21.3270741,0.808518519 C21.325848,0.599573099 21.1787856,0.410389864 20.9416394,0.273497076 C20.7045653,0.136604288 20.3775517,0.0520019493 20.0167115,0.0520019493 L16.806655,0.0520019493 C16.0849747,0.0520019493 15.5024951,0.390555556 15.5048752,0.808590643 L15.5081209,1.38724756 C15.5100682,1.73308577 15.1062417,2.03290838 14.5286667,2.12025146 C14.5002495,2.1247232 14.4713996,2.12933918 14.4424776,2.13359454 L16.4254035,6.36868811 L16.4089591,12.1533821 C17.0537544,12.0537057 17.7304288,12.000117 18.4299669,12.0003333 C20.5865692,12.0001891 22.5420156,12.5064327 23.9599883,13.3251209 C24.1379922,13.4278986 24.3074854,13.5355809 24.467963,13.647807 C25.1891384,13.1487758 25.7281267,12.5582904 26.0236218,11.9101053 L33.341616,13.0448441 L33.3251715,18.829538 C33.3328168,18.8130214 33.3408226,18.7962885 33.3483957,18.7798441 C33.4974055,18.4450409 34.0135302,18.2101306 34.6102183,18.20977 L35.6095789,18.2099864 C36.3312593,18.2099864 36.9137388,17.8714327 36.9113587,17.4534698 L36.9278031,11.668848 L36.9278031,11.6687758 L36.9174172,9.80939961 Z"  fill="#F75549"></path>
                                <path d="M5.4681384,18.2960312 L12.9674542,13.9378928 C12.7892339,13.8349708 12.6195244,13.7270721 12.4589025,13.6147739 C13.470308,12.9152359 14.8415439,12.3962982 16.4093197,12.1533821 L16.4257641,6.36868811 L14.4428382,2.13359454 C13.1013899,2.34160234 11.8327154,2.65152242 10.663501,3.0491462 C10.1483138,3.22412086 9.4950078,3.17911501 9.07091423,2.93432359 L8.36135088,2.52465497 C7.84976998,2.22930409 7.02293177,2.22959259 6.51466862,2.52494347 L4.25182651,3.83992203 C3.99895712,3.98691228 3.87281092,4.17919688 3.87266667,4.37176998 C3.87266667,4.37148148 3.87245029,4.37126511 3.87245029,4.37097661 L3.86235283,7.92492398 C3.7579883,8.10855361 3.66321637,8.29477973 3.57926316,8.48353021 C3.43083041,8.81811696 2.91405653,9.05324366 2.31744055,9.05302729 L1.31807992,9.05331579 C0.59639961,9.05331579 0.013920078,9.3918694 0.0163001949,9.80983236 L0.0163001949,9.81091423 L0,15.5943099 L0.0104580897,17.4536862 C0.0116842105,17.6626316 0.158818713,17.8518148 0.395892788,17.9887076 C0.632966862,18.1256004 0.959980507,18.2102027 1.32082066,18.2102027 L2.32025341,18.2099864 C2.67553996,18.2101306 3.00320273,18.2935068 3.24244055,18.4316257 C3.40500975,18.52546 3.52661209,18.644538 3.588423,18.7799162 C3.69026316,19.0031423 3.80703314,19.2229064 3.93736257,19.4389922 L3.94003119,18.5085828 L3.92762573,22.8846082 C3.92712086,23.0794893 4.0557193,23.274731 4.3132768,23.4234522 L5.45183821,24.0808694 L5.4681384,18.2960312"  fill="#3726B0"></path>
                                <path d="M14.4427661,2.13345029 L16.425692,6.36854386 C13.0952593,6.88466862 10.65023,8.64566667 10.6624191,10.739232 C10.6689825,11.9882885 11.5496257,13.1194932 12.9673821,13.9378928 L5.4681384,18.2960312 L4.329577,17.638614 C3.8179961,17.3432632 3.81489474,16.8643548 4.32308577,16.5690039 L5.02803314,16.1593353 C5.44938596,15.9144717 5.52533333,15.535961 5.22111111,15.2372203 C4.51587524,14.5442456 3.96794347,13.7914074 3.60479532,12.9951501 C3.54298441,12.8596998 3.42138207,12.7406218 3.25881287,12.6468596 C3.01964717,12.5087407 2.69184016,12.4253645 2.33662573,12.4252203 L1.33719298,12.4254366 C0.976352827,12.4254366 0.649339181,12.3408343 0.412265107,12.2039415 C0.175191033,12.0670487 0.0280565302,11.8779376 0.0268304094,11.6689201 L0.0163723197,9.80954386 C0.0140643275,9.39150877 0.59654386,9.05302729 1.31815205,9.05302729 L2.31751267,9.05273879 C2.91405653,9.05295517 3.43075828,8.81782846 3.57933528,8.48324172 C3.93346784,7.68698441 4.47288889,6.93407407 5.17040741,6.24117154 C5.47087914,5.94221442 5.39154191,5.56363158 4.96737622,5.31884016 L4.25781287,4.90917154 C3.74623197,4.61382066 3.74363548,4.13512865 4.25175439,3.83977778 L6.51459649,2.52479922 C7.02285965,2.22944834 7.84969786,2.22923197 8.36120663,2.52451072 L9.07076998,2.93417934 C9.49486355,3.17904288 10.1481696,3.22404873 10.6633567,3.04900195 C11.8326433,2.65137817 13.1013177,2.34138596 14.4427661,2.13345029 Z"  fill="#B57EF2"></path>
                                <path d="M10.6624191,10.7391598 C10.668117,11.8312008 11.3421228,12.8330136 12.4588304,13.6147018 C13.4702359,12.9151637 14.8414717,12.3962261 16.4092476,12.1533099 L16.425692,6.36861598 C13.0952593,6.88466862 10.65023,8.64566667 10.6624191,10.7391598 Z"  fill="#3726B0"></path>
                                <path d="M1.33712086,12.4254366 C0.976280702,12.4254366 0.649267057,12.3408343 0.412192982,12.2039415 C0.175118908,12.0670487 0.0279844055,11.8779376 0.0267582846,11.6689201 L0.0163001949,9.80954386 L0,15.5943099 L0.0104580897,17.453614 C0.0116842105,17.6625595 0.158818713,17.8517427 0.395892788,17.9886355 C0.632966862,18.1255283 0.959980507,18.2101306 1.32082066,18.2101306 L2.32025341,18.2099142 L2.33662573,12.4252203 L1.33712086,12.4254366 Z"  fill="#9013FE"></path>
                                <path d="M32.6147427,3.83970565 C33.1263236,4.13505653 33.1289201,4.61374854 32.6208012,4.90909942 L31.9158538,5.31876803 C31.494501,5.56363158 31.4194191,5.9421423 31.7232086,6.24109942 C32.4284444,6.93407407 32.9763762,7.68691228 33.3395244,8.48316959 C33.4011189,8.61847563 33.5226491,8.73740936 33.6851462,8.83124366 C33.9244561,8.96936257 34.2524074,9.05273879 34.6077661,9.05259454 L35.6071988,9.05281092 C35.968039,9.05281092 36.2950526,9.13741326 36.5321267,9.27430604 C36.7692008,9.41119883 36.9164074,9.60030994 36.9175614,9.80932749 L36.9280195,11.6687037 C36.9303275,12.0867388 36.347848,12.4252203 35.6262398,12.4252203 L34.6268791,12.4250039 C34.0303353,12.4252203 33.5140663,12.6602027 33.3650565,12.995078 C33.3574113,13.0115945 33.3494776,13.0283275 33.3418324,13.0448441 L26.0238382,11.9101053 C26.1941969,11.536499 26.2842086,11.1442125 26.2819006,10.739232 C26.2751209,9.49003119 25.394694,8.35904288 23.9767212,7.5404269 C22.5587485,6.72173879 20.6034464,6.21549513 18.4467719,6.21563938 C17.7471618,6.215423 17.0705595,6.2690117 16.4257641,6.36868811 L14.4428382,2.13359454 C14.4716881,2.12933918 14.500538,2.1247232 14.5290273,2.12025146 C15.1066023,2.03290838 15.510501,1.73308577 15.5084815,1.38724756 L15.5052359,0.808590643 C15.5029279,0.390555556 16.0854074,0.0520019493 16.8070156,0.0520740741 L20.0170721,0.0520740741 C20.3779123,0.0520740741 20.7049259,0.136676413 20.942,0.273569201 C21.1790741,0.410461988 21.3262807,0.599573099 21.3274347,0.808590643 L21.3306803,1.38724756 C21.3318343,1.59323587 21.4768051,1.78292398 21.716115,1.92104288 C21.8786121,2.01480507 22.0844561,2.08491033 22.3184288,2.12025146 C23.6942807,2.32797076 24.9958441,2.64286745 26.1944133,3.0491462 C26.7115478,3.22412086 27.3643489,3.17911501 27.7857018,2.93432359 L28.4906491,2.52465497 C28.9988402,2.22930409 29.8257505,2.22952047 30.3372593,2.52487135 L32.6147427,3.83970565 Z"  fill="#FF6342"></path>
                                <g  transform="translate(31.518519, 4.327485)" fill="#FF5023">
                                    <path d="M1.4808655,0.057411306 C1.47740351,0.247387914 1.35176218,0.436643275 1.10221053,0.581614035 L0.397263158,0.991282651 C-0.0240896686,1.2361462 -0.09917154,1.61465692 0.204617934,1.91361404 C0.712015595,2.41214035 1.13747953,2.94182456 1.47177778,3.49631969 L1.48160013,0.0507037037 C1.48165887,0.0590701754 1.4814425,0.0609454191 1.4808655,0.057411306 Z" ></path>
                                    <path d="M4.107577,8.09780702 L3.10821637,8.09759064 C2.51167251,8.09780702 1.99540351,8.33278947 1.84639376,8.66766472 C1.83874854,8.68418129 1.83081481,8.70091423 1.82316959,8.7174308 L1.80672515,14.5021248 C1.81437037,14.4856082 1.82230409,14.4688752 1.82994932,14.4524308 C1.97895906,14.1176277 2.49508382,13.8827173 3.09177193,13.8823567 L4.09113255,13.8825731 C4.81281287,13.8825731 5.3952924,13.5440195 5.39291228,13.1260565 L5.40936399,7.34136257 C5.41173684,7.75932554 4.82932943,8.09780702 4.107577,8.09780702 Z" ></path>
                                </g>
                                <g  transform="translate(3.822612, 4.327485)" fill="#9013FE">
                                    <path d="M1.3477232,1.91368616 C1.64819493,1.61472904 1.5688577,1.2361462 1.14469201,0.991354776 L0.435128655,0.58168616 C0.178076023,0.433325536 0.0496939571,0.238588694 0.0499824561,0.0441403509 C0.0499824561,0.0438518519 0.0497660819,0.0436354776 0.0497660819,0.0433469786 L0.039668616,3.59729435 C0.375842105,3.00608772 0.815730994,2.44236062 1.3477232,1.91368616 Z" ></path>
                                    <path d="M0.506964912,13.3112008 C0.249479532,13.1624795 0.120736842,12.9673099 0.12131384,12.7723567 L0.104869396,18.5570507 C0.104364522,18.7519318 0.232962963,18.9471735 0.490520468,19.0958947 L1.62908187,19.7533119 L1.64552632,13.9686179 L0.506964912,13.3112008 Z" ></path>
                                </g>
                                <path d="M3.94392593,17.0998421 C3.94392593,17.1004912 3.94407018,17.1012125 3.94407018,17.1018616 C3.94378168,16.9089279 4.06985575,16.7161384 4.32308577,16.569076 L5.02803314,16.1594074 C5.24931189,16.030809 5.37430409,15.8653548 5.40005263,15.6939142 L5.40026901,15.5640175 C5.38389669,15.4515029 5.32533138,15.3397096 5.22111111,15.2373645 C4.51587524,14.5443899 3.96787135,13.7915517 3.60479532,12.9952943 C3.54298441,12.8598441 3.42138207,12.7407661 3.25881287,12.6470039 C3.01964717,12.508885 2.69184016,12.4255088 2.33662573,12.4253645 L2.32018129,18.2100585 C2.67546784,18.2102027 3.00320273,18.2935789 3.24236842,18.4316979 C3.40493762,18.5255322 3.52653996,18.6446101 3.58835088,18.7799883 C3.69019103,19.0032144 3.80696101,19.2229786 3.93729045,19.4390643 L3.94392593,17.0998421 Z"  fill="#3726B0"></path>
                                <g  transform="translate(5.409357, 11.900585)" fill="#F18700">
                                    <path d="M22.4481813,12.4280331 L23.1577446,12.8377018 C23.6693255,13.1330526 24.495731,13.1330526 25.0039942,12.8377018 L27.2668363,11.5227232 C27.5194172,11.3759493 27.645924,11.183809 27.6464288,10.9913801 L27.6565263,7.43382651 C27.7508655,7.26750682 27.8384971,7.09945614 27.9161754,6.92895322 L27.9326199,1.14425926 L20.6146257,0.00952046784 C19.7344873,1.94030019 16.7026511,3.36260039 13.0884074,3.36238402 C10.9315166,3.36238402 8.97635867,2.8562846 7.55816959,2.03745224 L0.0588538012,6.39551852" ></path>
                                    <path d="M0.0587816764,6.39544639 L0.042337232,12.1801404 L1.18140351,12.8377739 C1.69298441,13.1331248 2.51938986,13.1331248 3.02765302,12.8377739 L3.73260039,12.4281053 C4.15395322,12.1832417 4.80761988,12.1382359 5.32432164,12.3135712 C6.52296296,12.7198499 7.82445419,13.0348187 9.20023392,13.2424659 C9.43406238,13.2777349 9.64005068,13.347768 9.80254776,13.4416023 C10.0418577,13.5797212 10.1868285,13.7692651 10.1879825,13.9749649 L10.2044269,8.19027096 L10.2076725,8.76943275 L10.2076725,8.76950487 L10.1912281,14.5540546 C10.1924542,14.763 10.3395166,14.9521832 10.5766628,15.089076 C10.8137368,15.2259688 11.1407505,15.3105712 11.5015906,15.3105712 L14.7116472,15.3105712 C15.4333275,15.3105712 16.015807,14.9720175 16.0134269,14.5539825 L16.01523,13.9071676 C16.0624717,13.5909006 16.4505029,13.3236784 16.9895634,13.2423938 C18.3631072,13.0346745 19.6610643,12.7197778 20.8550897,12.313499 C21.3698441,12.1382359 22.0240156,12.1831696 22.4481092,12.4280331" ></path>
                                </g>
                                <g  transform="translate(5.409357, 17.093567)" fill="#FF9911">
                                    <path d="M27.2830643,0.544974659 L25.0202222,1.85995322 C24.5120312,2.15530409 23.6855536,2.15530409 23.1740448,1.85995322 L22.4644815,1.4502846 L22.4481092,7.23497856 L23.1576725,7.64464717 C23.6692534,7.93999805 24.4956589,7.93999805 25.0038499,7.64464717 L27.266692,6.32966862 C27.5192729,6.18289474 27.6457797,5.99075439 27.6462846,5.79832554 L27.662729,0.0136315789 C27.662152,0.206060429 27.5356452,0.398128655 27.2830643,0.544974659 Z" ></path>
                                    <path d="M3.04402534,1.86009747 C2.53583431,2.15544834 1.70935673,2.15544834 1.19784795,1.86009747 L0.0588538012,1.20246394 L0.0424093567,6.98715789 L1.18147563,7.64479142 C1.69305653,7.9401423 2.51946199,7.9401423 3.02765302,7.64479142 L3.73260039,7.23512281 L3.74897271,1.45042885 L3.04402534,1.86009747 Z" ></path>
                                </g>
                                <g  transform="translate(9.087719, 18.319688)" fill="#F18700">
                                    <path d="M18.7861189,0.224235867 L18.7696745,6.00892982 C18.3455809,5.76406628 17.6914094,5.71906043 17.176655,5.89439571 C15.9826296,6.30067446 14.6846725,6.61564327 13.3111287,6.82329045 C12.7339864,6.91041715 12.329655,7.21045614 12.3316669,7.55571735 L12.3481189,1.77102339 C12.3461715,1.42569006 12.7505029,1.1257232 13.3275731,1.03859649 C14.701117,0.830877193 15.9990741,0.515980507 17.1930994,0.109701754 C17.7078538,-0.0656335283 18.3620975,-0.0206276803 18.7861189,0.224235867 Z" ></path>
                                    <path d="M6.52592008,1.77102339 L6.50947563,7.55571735 C6.50832164,7.35008967 6.36327875,7.16054581 6.12404094,7.02235478 C5.96154386,6.92852047 5.75562768,6.8584152 5.5217271,6.82321832 C4.14587524,6.61549903 2.84431189,6.30060234 1.64581481,5.89432359 C1.12904094,5.71906043 0.475446394,5.76399415 0.0540935673,6.0088577 L0.0705380117,0.224163743 C0.491890838,-0.0206998051 1.1455575,-0.065705653 1.66225926,0.10962963 C2.86090058,0.515908382 4.16239181,0.830877193 5.53817154,1.03852437 C5.772,1.07379337 5.9779883,1.14382651 6.14048538,1.23766082 C6.37979532,1.37585185 6.52483821,1.56546784 6.52592008,1.77102339 Z" ></path>
                                </g>
                                <g  transform="translate(15.578947, 20.050682)" fill="#FF9911">
                                    <polygon  points="0.154391813 0.619191033 0.0408918129 6.40388499 0.0183918129 5.8247232 0.131391813 0.0400292398"></polygon>
                                    <path d="M4.55842885,1.3757076 L1.34837232,1.3757076 C0.987532164,1.3757076 0.660518519,1.29110526 0.423444444,1.15421248 C0.18637037,1.01731969 0.0391637427,0.828208577 0.0380097466,0.619191033 L0.0215653021,6.40388499 C0.022791423,6.61283041 0.169853801,6.80201365 0.407,6.93890643 C0.644146199,7.07579922 0.971087719,7.16040156 1.33192788,7.16040156 L4.54198441,7.16040156 C5.26366472,7.16040156 5.84614425,6.82184795 5.84376413,6.40388499 L5.86021541,0.619191033 C5.86251657,1.03722612 5.28003704,1.3757076 4.55842885,1.3757076 Z" ></path>
                                </g>
                                <path d="M33.3417602,13.0447719 C32.9875556,13.8227096 32.4565731,14.5585984 31.7739123,15.2371481 C31.4730078,15.5358889 31.5532827,15.9143996 31.9773762,16.1592632 L32.6869396,16.5689318 C33.1985205,16.8642827 33.2006842,17.343191 32.6924932,17.6385419 L30.4296511,18.9535205 C29.9213879,19.2488713 29.0949825,19.2488713 28.5834737,18.9535205 L27.8739103,18.5438519 C27.4498168,18.2989883 26.7956452,18.2539825 26.2808908,18.4293177 C25.0868655,18.8355965 23.7889084,19.1505653 22.4153645,19.3582125 C21.8382222,19.4453392 21.4338908,19.7453782 21.4359103,20.0906394 L21.4391559,20.6698012 C21.4414639,21.0878363 20.8589844,21.4263177 20.1373762,21.4263899 L16.9273197,21.4263899 C16.5664795,21.4263899 16.2394659,21.3417875 16.0023918,21.2048947 C15.7653177,21.0680019 15.6181832,20.8788908 15.6169571,20.6698733 L15.6137115,20.0907115 C15.6125575,19.8850838 15.4675146,19.69554 15.2282768,19.5573489 C15.0657797,19.4635146 14.8598635,19.3934094 14.625963,19.3582125 C13.2501111,19.1504932 11.9485478,18.8355965 10.7500507,18.4293177 C10.2332768,18.2540546 9.57968226,18.2989883 9.15832943,18.5438519 L8.45338207,18.9535205 C7.94519103,19.2488713 7.11871345,19.2488713 6.60720468,18.9535205 L5.46821053,18.2958869 L12.9675263,13.9377485 C14.3857154,14.7565088 16.3408012,15.2626803 18.4977641,15.2626803 C22.1120078,15.2628967 25.1437719,13.8406686 26.0239825,11.9098168 L33.3417602,13.0447719 Z"  fill="#FFA834"></path>
                                <path d="M23.9602768,13.3249766 C24.1382807,13.4277544 24.3077739,13.5354366 24.4682515,13.6476628 C25.1894269,13.1486316 25.7284152,12.5581462 26.0239103,11.909961 L26.1030312,11.9222222 L26.0239103,11.909961 C26.1679435,11.5941988 26.2537719,11.2648772 26.2756979,10.9260351 L26.2762749,10.5872651 C26.2020585,9.39843275 25.3369942,8.325577 23.9767212,7.54021053 C22.5588928,6.72152242 20.6034464,6.21527875 18.4467719,6.215423 C17.7471618,6.21520663 17.0705595,6.26879532 16.4257641,6.36847173 L16.4093197,12.1531657 C17.054115,12.0534893 17.7307895,11.9999006 18.4303275,12.000117 C20.5869298,12.0000448 22.5423041,12.5064327 23.9602768,13.3249766 Z"  fill="#F75549"></path>
                                <path d="M31.7738402,15.237076 C31.4729357,15.5358168 31.5532105,15.9143275 31.977232,16.159191 L32.6867953,16.5688596 C32.9605809,16.7269571 33.0870156,16.9376335 33.0688402,17.1445595 C33.0699942,17.1320819 33.0720136,17.1196043 33.0720136,17.1071267 L33.0656667,19.3342671 C33.1600058,19.1679474 33.2476374,18.9998967 33.3253158,18.8293938 L33.3417602,13.0446998 C32.9874834,13.8227096 32.456501,14.5585263 31.7738402,15.237076 Z"  fill="#F18700"></path>
                            </g>
                        </g>
                    </g>
                </g>
            </g>
        </g>
    </g>
</svg>