<svg width="128px" height="67px" viewBox="0 0 128 67" version="1.1" xmlns="http://www.w3.org/2000/svg" xmlns:xlink="http://www.w3.org/1999/xlink">
    <g  stroke="none" stroke-width="1" fill="none" fill-rule="evenodd">
        <g  transform="translate(-196.000000, -231.000000)" fill-rule="nonzero">
            <g  transform="translate(196.000000, 231.000000)">
                <g  transform="translate(55.000000, 0.000000)">
                    <polygon  fill="#B57EF2" points="46.4622426 13.2869075 46.4622426 38.5685106 23.3065321 51.8559557 -5.32907052e-15 38.5690482 -5.32907052e-15 13.2874451 23.3065321 5.32907052e-15"></polygon>
                    <polygon  fill="#3726B0" points="46.4622426 13.2874451 46.4622426 38.5685106 23.2311213 51.8559557 23.2311213 25.9279778"></polygon>
                    <polygon  fill="#9013FE" points="22.3707093 25.9279778 22.3707093 51.1038112 0 38.5690482 0 13.2874451"></polygon>
                </g>
                <g >
                    <polygon  fill="#B57EF2" points="46.4622426 13.2869075 46.4622426 38.5685106 23.3065321 51.8559557 -5.32907052e-15 38.5690482 -5.32907052e-15 13.2874451 23.3065321 5.32907052e-15"></polygon>
                    <polygon  fill="#3726B0" points="46.4622426 13.2874451 46.4622426 38.5685106 23.2311213 51.8559557 23.2311213 25.9279778"></polygon>
                    <polygon  fill="#9013FE" points="22.3707093 25.9279778 22.3707093 51.1038112 1.33226763e-14 38.5690482 1.33226763e-14 13.2874451"></polygon>
                </g>
                <g  transform="translate(81.000000, 15.000000)">
                    <polygon  fill="#B57EF2" points="46.4622426 13.2869075 46.4622426 38.5685106 23.3065321 51.8559557 -5.32907052e-15 38.5690482 -5.32907052e-15 13.2874451 23.3065321 5.32907052e-15"></polygon>
                    <polygon  fill="#3726B0" points="46.4622426 13.2874451 46.4622426 38.5685106 23.2311213 51.8559557 23.2311213 25.9279778"></polygon>
                    <polygon  fill="#9013FE" points="22.3707093 25.9279778 22.3707093 51.1038112 0 38.5690482 0 13.2874451"></polygon>
                </g>
                <g  transform="translate(27.000000, 15.000000)">
                    <polygon  fill="#B57EF2" points="46.4622426 13.2869075 46.4622426 38.5685106 23.3065321 51.8559557 -5.32907052e-15 38.5690482 -5.32907052e-15 13.2874451 23.3065321 5.32907052e-15"></polygon>
                    <polygon  fill="#3726B0" points="46.4622426 13.2874451 46.4622426 38.5685106 23.2311213 51.8559557 23.2311213 25.9279778"></polygon>
                    <polygon  fill="#9013FE" points="22.3707093 25.9279778 22.3707093 51.1038112 0 38.5690482 0 13.2874451"></polygon>
                </g>
            </g>
        </g>
    </g>
</svg>