<svg width="61px" height="64px" viewBox="0 0 61 64" version="1.1" xmlns="http://www.w3.org/2000/svg" xmlns:xlink="http://www.w3.org/1999/xlink">
    <defs></defs>
    <g  stroke="none" stroke-width="1" fill="none" fill-rule="evenodd">
        <g  transform="translate(-1049.000000, -1116.000000)" fill-rule="nonzero">
            <g  transform="translate(202.000000, 759.000000)">
                <g id="consultancy" transform="translate(718.000000, 332.000000)">
                    <g >
                        <g id="chat" transform="translate(129.000000, 25.000000)">
                            <polygon  fill="#9013FE" points="60.9285 35.046375 29.827625 17.09025 23.647875 20.681625 23.633625 42.648875 45.528125 55.289625 50.55675 64 56.7365 60.40875 56.73925 59.439875 60.91425 57.013625"></polygon>
                            <g  transform="translate(50.500000, 35.000000)" fill="#3726B0">
                                <polygon  points="4.24875 3.637625 10.4285 0.046375 10.41425 22.013625 4.2345 25.604875"></polygon>
                                <polygon  points="0.073125 23.2025 6.253 19.611125 6.2365 25.40875 0.05675 29"></polygon>
                            </g>
                            <polygon  fill="#9013FE" points="54.74875 38.637625 54.7345 60.604875 50.573125 58.2025 50.55675 64 45.528125 55.289625 23.633625 42.648875 23.647875 20.681625"></polygon>
                            <polygon  fill="#B57EF2" points="23.647875 20.681625 29.827625 17.09025 60.9285 35.046375 54.74875 38.637625"></polygon>
                            <polygon  fill="#F75549" points="5.53975 0 0.0715 3.17775 0.0715 22.57325 3.753625 24.69925 3.739125 29.828875 8.21775 27.276625 27.591375 38.461875 33.059625 35.284125 33.059625 15.888625"></polygon>
                            <polygon  fill="#F0A5A0" points="0.0715 3.17775 5.53975 0 33.059625 15.888625 27.591375 19.066375"></polygon>
                            <polygon  fill="#F75549" points="27.591375 19.066375 33.059625 15.888625 33.059625 35.284125 27.591375 38.461875"></polygon>
                            <polygon  fill="#FD6D5B" points="27.591375 19.066375 27.591375 38.461875 8.21775 27.276625 3.739125 29.828875 3.753625 24.69925 0.0715 22.57325 0.0715 3.17775"></polygon>
                        </g>
                    </g>
                </g>
            </g>
        </g>
    </g>
</svg>