 <svg width="64px" height="51px" viewBox="0 0 64 51" version="1.1" xmlns="http://www.w3.org/2000/svg" xmlns:xlink="http://www.w3.org/1999/xlink">
    <defs></defs>
    <g  stroke="none" stroke-width="1" fill="none" fill-rule="evenodd">
        <g  transform="translate(-689.000000, -1131.000000)">
            <g  transform="translate(202.000000, 759.000000)">
                <g id="ico" transform="translate(359.000000, 331.000000)">
                    <g >
                        <g id="coin" transform="translate(128.000000, 41.000000)">
                            <path d="M63.999875,18.728 C63.99975,18.79375 63.99675,18.859375 63.99525,18.925125 C64.10075,14.0785 60.95625,9.20725 54.5645,5.517 C42.04325,-1.712125 21.7355,-1.712125 9.294375,5.517875 C2.784125,9.30125 -0.298625,14.326375 0.034375,19.293625 L1.28898018e-13,31.53875 C-0.013625,36.310125 3.135625,41.088875 9.440875,44.729125 C21.971,51.963375 42.220875,51.96325 54.66975,44.728875 C60.854625,41.134625 63.950375,36.431375 63.96375,31.721125 L63.991625,22.31975 C64.000625,22.082375 64,21.845 63.99325,21.6075 L63.999875,18.728 Z"  fill="#9013FE" fill-rule="nonzero"></path>
                            <path d="M54.5585,8.7525 C67.088625,15.98675 67.156,27.7155 54.706,34.95075 C42.25725,42.18525 22.007375,42.185375 9.477125,34.951 C-3.053125,27.716625 -3.119125,15.987125 9.329625,8.75275 C21.779625,1.5175 42.028375,1.518125 54.5585,8.7525 Z"  fill="#B57EF2" fill-rule="nonzero"></path>
                            <path d="M63.999875,18.728 L63.963875,31.72125 C63.9505,36.4315 60.85475,41.13475 54.669875,44.729 C42.221125,51.9635 21.97125,51.963625 9.441,44.72925 C3.13575,41.08875 -0.013375,36.310125 -1.61648472e-13,31.53875 L0.036,18.5455 C0.022375,23.316875 3.171625,28.095625 9.477,31.735875 C22.007125,38.970125 42.257,38.97 54.705875,31.735625 C60.89075,28.141375 63.986625,23.43825 63.999875,18.728 Z"  fill="#9013FE" fill-rule="nonzero"></path>
                            <g  transform="translate(13.750000, 8.125000)">
                                <path d="M34.891403,15.061695 C33.6690534,15.5713309 32.7110507,15.8982569 32.0173952,16.0424729 C30.808273,16.2938581 29.221625,16.6493516 28.12,16.3047266 C27.01825,15.9602266 25.9775,15.5291016 25,15.0103516 L25.01275,10.5114766 C25.99025,11.0302266 27.031,11.4613516 28.13275,11.8058516 C29.2345,12.1503516 30.359625,12.3666016 31.508125,12.4568516 C32.2767083,12.5170182 33.6095269,11.6518941 35.5065808,9.86147907 L35.506577,14.1387083 C35.506577,14.5423256 35.2639377,14.9063735 34.891403,15.061695 Z"  fill="#3726B0" fill-rule="nonzero"></path>
                                <path d="M10.0978027,11.2246209 C10.2332776,11.26407 14.6565128,14.14599 15.9708844,14.5040438 C17.035578,14.7939929 18.0450243,15.3056441 19.0734031,15.5047522 C19.5937713,15.6055026 20.7026193,15.8091928 21.2043661,15.7133307 C22.7801663,15.1323143 22.7801663,15.022726 23.0562317,14.5040438 C23.3152054,14.0174742 22.680484,13.4384494 21.8175202,12.884707 C19.8841432,11.5871617 17.3058984,10.4396562 15.0007696,9.05111421 C14.6716966,8.8146729 14.6338303,8.8643038 14.3975062,8.95197984 C13.7699825,9.33962088 13.0499394,9.6369105 12.4118094,10.0642693 C11.3544138,10.6367493 11.221364,10.4925415 10.0978027,11.2246209 Z"  fill="#9013FE"></path>
                                <polygon  fill="#3726B0" fill-rule="nonzero" points="11.8549805 16.2762205 11.8549805 20.3867188 7.09667969 22.3481445 7.09667969 18.5671387"></polygon>
                                <polygon  fill="#3726B0" fill-rule="nonzero" points="29.3684082 2.12252808 29.3265076 5.60629272 25 8.07192398 25 4.29091812"></polygon>
                                <polygon  fill="#3726B0" fill-rule="nonzero" points="34.4738464 4.44958496 34.4738464 7.69949043 31.2332458 9.75311279 30.7456055 6.5085144"></polygon>
                                <polygon  fill="#3726B0" fill-rule="nonzero" points="7.17374788 13.9600092 7.17374788 18.1485436 2.33837891 20.0305105 2.33837891 16.1618129"></polygon>
                                <g transform="translate(0.000000, 9.000000)" fill="#9013FE" fill-rule="nonzero" >
                                    <polygon points="2.33390889 7.14958479 2.33390889 11.0272971 0 9.85231562 0 5.81788401"></polygon>
                                    <path d="M3.8625217,2.92995877 L4.74696181,3.59261068 L4.03884549,3.96571181 C3.70503102,4.22468651 3.42734367,4.42764875 3.20578342,4.57459852 C2.67551106,4.92630153 1.96234809,5.25754123 1.65565321,5.36176215 C1.18178295,5.52279254 0.751408237,5.355511 0.36452908,4.85991753 L0.36452908,0.68343099 L3.8625217,2.92995877 Z"></path>
                                    <polygon points="7.06072645 9.54055224 7.12004524 13.3320894 4.39178626 12.1032214 4.39178626 8.25090575"></polygon>
                                </g>
                                <path d="M29.4893118,14.7162944 L29.4893118,18.4878848 C29.1128118,19.0587598 28.1182539,19.9459961 27.1665039,20.4991211 C26.0593789,21.1424961 23.458248,21.9910322 22.291748,22.2174072 C21.122998,22.4424072 19.988408,22.3990479 18.8125,22.3990479 C17.636592,22.3990479 16.2936985,22.0184961 15.12,21.7934961 C13.9463015,21.5684961 12.8540771,20.9350006 11.8765771,20.4162506 L11.8765771,16.3320929 C12.9320299,16.7414859 14.031,16.9501211 15.13275,17.2946211 C16.2345,17.6391211 17.359625,17.8553711 18.508125,17.9456211 C19.661,18.0358711 20.8031989,17.9456211 21.9855859,17.9456211 C23.1679729,17.9456211 25.1665815,17.2946211 26.5842317,16.6865055 C27.4609434,16.310431 29.1126868,15.2871694 29.4893118,14.7162944 Z"  fill="#9013FE" fill-rule="nonzero"></path>
                                <path d="M10.0978027,11.2246209 C10.2332776,11.26407 14.6565128,14.14599 15.9708844,14.5040438 C17.035578,14.7939929 18.0450243,15.3056441 19.0734031,15.5047522 C19.5937713,15.6055026 20.7026193,15.8091928 21.2043661,15.7133307 C22.7801663,15.1323143 22.7801663,15.022726 23.0562317,14.5040438 C23.3152054,14.0174742 22.680484,13.4384494 21.8175202,12.884707 C19.8841432,11.5871617 17.3058984,10.4396562 15.0007696,9.05111421 C14.6716966,8.8146729 14.6338303,8.8643038 14.3975062,8.95197984 C13.7699825,9.33962088 13.0499394,9.6369105 12.4118094,10.0642693 C11.3544138,10.6367493 11.221364,10.4925415 10.0978027,11.2246209 Z"  fill="#9013FE"></path>
                                <polygon  fill="#3726B0" fill-rule="nonzero" points="15 8.07192398 15 12.9017954 10 15.071924 10 10.6108619"></polygon>
                                <path d="M19,6.70966881 C19.0987563,6.73842576 22.3231347,8.83924118 23.281264,9.10024943 C24.0573871,9.31161186 24.793237,9.68458703 25.5428879,9.82972965 C25.9222175,9.90317303 26.7305275,10.0516559 27.0962828,9.98177579 C28.2449841,9.55823588 28.2449841,9.47834998 28.4462258,9.10024943 C28.6350083,8.74555779 28.1723193,8.32346968 27.54325,7.91981153 C26.1338881,6.97394796 24.2544409,6.137458 22.5740855,5.12526111 C22.3342031,4.95290395 22.3066,4.98908308 22.1343283,5.05299574 C21.6768862,5.33557203 21.1520008,5.5522854 20.6868272,5.86381452 C19.916024,6.28113168 19.8190356,6.17600945 19,6.70966881 Z"  fill="#9013FE"></path>
                                <path d="M22.7904391,15.261693 C22.6662547,15.3291384 22.5276529,15.4012091 22.3746338,15.4779053 C21.5287679,15.9018696 19.7814733,15.5161681 17.13275,14.3208008 C16.0802754,13.9066057 15.2282048,13.5053199 14.5765381,13.1169434 C14.5765381,9.75359711 14.5765381,8.07192398 14.5765381,8.07192398 C14.5765381,8.07192398 15.4286087,8.55168272 17.13275,9.51120019 L20.8342285,11.723647 C21.8916903,12.5922333 22.5749585,13.1894755 22.8840332,13.5153738 C22.9609263,13.5964523 23.0332664,13.6803565 23.1010536,13.7670863 L23.1010845,13.7670621 C23.4412007,14.2022211 23.3641533,14.8307059 22.9289942,15.170822 C22.8854024,15.204893 22.8390584,15.2352876 22.7904391,15.261693 Z"  fill="#B57EF2" fill-rule="nonzero"></path>
                                <polygon  fill="#3726B0" fill-rule="nonzero" points="23 4 23 7.44990818 18 9 18 5.81352709"></polygon>
                                <path d="M28.7315674,8.56323242 C29.1642551,9.01127577 29.0869032,9.36637831 28.4995117,9.62854004 C27.9121203,9.89070177 26.3373166,9.53559923 23.7751006,8.56323242 C23.2304326,8.25154897 22.7318313,7.97562937 22.2792969,7.73547363 C22.2792969,5.91377767 22.2792969,5.00292969 22.2792969,5.00292969 C22.2792969,5.00292969 22.6632439,5.00888779 23.9315186,5.71228027 C24.777035,6.1812086 25.6533777,6.70178088 26.5605469,7.27399712 C27.4452011,7.64672791 27.9948431,7.9338542 28.2094727,8.13537598 C28.4241022,8.33689776 28.5981338,8.47951657 28.7315674,8.56323242 Z"  fill="#B57EF2" fill-rule="nonzero"></path>
                                <path d="M18.4573356,0 C19.1512571,0.456481671 19.9025924,0.867419376 20.6253274,1.31739666 C21.3625069,1.76411325 22.1568119,2.16535094 22.9228048,2.60556315 C23.1264807,2.73272617 23.2513071,2.718817 23.4607951,2.62062958 C24.4991396,2.01972656 25.477981,1.46483913 26.4784465,0.872486956 C26.677252,0.776711012 26.798465,0.76361753 27.0083986,0.889367946 C27.7288126,1.29301661 28.4143228,1.62510862 29.1957727,1.98239567 C29.4171994,2.10555161 29.3788801,2.14678517 29.2152865,2.20202901 C28.2438161,2.7552525 27.2143596,3.35414915 26.2072619,3.91541517 C26.165385,3.95745182 26.1234456,3.99950257 25.9527896,4.05634069 C26.5646358,4.35820912 27.2725614,4.68524104 27.9005794,4.98345883 C27.9900876,5.01010574 28.1632808,4.95269487 28.2946327,4.93731262 C29.0993635,4.47262648 29.852775,4.05210852 30.7254172,3.61894456 L31.4586297,3.20298636 C31.5349158,3.12059882 31.6629125,3.10597398 31.8051622,3.20015085 C32.5996064,3.58708788 33.4438958,3.93018949 34.356054,4.33740621 C34.4499901,4.36305356 34.4122142,4.40416444 34.5062851,4.42978135 C33.7270158,4.8887198 32.9758485,5.30873113 32.214969,5.73093492 C31.9185707,5.91390818 31.6204835,6.0972627 31.226727,6.25536112 C31.0084825,6.35552522 31.0608641,6.42313644 31.3018744,6.54187156 L33.857831,7.99977197 C34.5972897,8.49687144 35.1634386,9.0514081 35.4490868,9.64072675 C35.7273688,10.48833 35.1297438,11.1914241 33.9973938,11.7809647 C33.1829902,12.1826677 32.3039148,12.519534 31.101955,12.6767115 C30.200519,12.794587 29.1932605,12.7774793 28.2395164,12.7157078 C28.1390309,12.6915389 27.9896713,12.7109862 27.7892077,12.662534 C28.0433918,12.8903144 28.3485795,13.0739979 28.6064293,13.3009509 C29.3907001,13.9793895 29.6730185,14.6488957 29.3858057,15.3573082 C29.0339108,15.8888669 28.305979,16.3973381 27.4099347,16.8174708 C26.2385506,17.3506564 25.0583938,17.7738031 23.5055634,18.0610839 C21.6284453,18.3930312 19.7861877,18.3810514 18.0475861,18.0890506 C15.7840584,17.7138675 13.9584603,17.1237618 12.2383755,16.4772541 C12.0170879,16.3540668 11.7710125,16.3484942 11.4988938,16.46082 C10.161584,17.0966283 8.74503404,17.7829078 7.37209697,18.4267587 C7.02616484,18.5883305 6.9627602,18.6352268 6.62612368,18.41179 C5.92619203,18.0829535 5.20921357,17.6785293 4.52961962,17.3451018 C4.32644882,17.2178247 4.39008843,17.1708753 4.60593141,17.1038367 C6.03021226,16.415812 7.43497505,15.7321934 8.84920067,15.1258745 C8.96912957,15.033635 9.11804016,15.0142891 8.99990372,14.9146688 C8.41251913,14.6072784 7.83275257,14.2981683 7.1746173,13.9598967 C6.45980983,14.3208027 5.65366721,14.6554743 4.92791953,15.01885 C4.19669818,15.3834613 3.37427408,15.7218082 2.63211252,16.0888892 C2.41886994,16.1553409 2.35496044,16.2023512 2.16255989,16.0726428 C1.5076928,15.6541976 0.800712009,15.2800998 0.105536177,14.9033371 C-0.0750143572,14.7709538 -0.0108074506,14.7238763 0.198819159,14.6582409 C1.60334024,13.9746769 2.98834325,13.2955189 4.37489082,12.6954481 C4.43545379,12.6491932 4.57766703,12.6313591 4.69843299,12.5389306 C3.21231516,11.6012994 1.78925629,10.6494331 0.355680021,9.65308851 C0.745723624,9.52841156 1.00078408,9.41993658 1.38912445,9.29564412 C2.2224288,9.00169361 3.05073202,8.70887206 3.74144508,8.43284099 C3.99008674,8.325815 4.06459515,8.35584797 4.28878635,8.44579653 C4.70025666,8.74604542 5.19418641,9.07453241 5.67588323,9.32634499 C6.18404723,9.65161872 6.88569366,9.64401052 7.36339054,9.35494411 C11.195037,7.43731876 14.8513608,5.55927089 18.2990752,3.64887881 C18.8255062,3.36308036 18.8390098,2.83251934 18.271134,2.44128914 C17.712976,2.04786519 17.1192011,1.69506478 16.6095585,1.37012484 C16.4606059,1.3100444 16.4317688,1.23711822 16.5967651,1.18155774 C17.3137997,0.801834867 18.0664459,0.381489668 18.7664564,0.00560982747 C18.3399891,0.0122206593 18.3399891,0.0122206593 18.4573356,0 Z M10.0978027,11.2246209 C10.2332776,11.26407 14.6565128,14.14599 15.9708844,14.5040438 C17.035578,14.7939929 18.0450243,15.3056441 19.0734031,15.5047522 C19.5937713,15.6055026 20.7026193,15.8091928 21.2043661,15.7133307 C22.7801663,15.1323143 22.7801663,15.022726 23.0562317,14.5040438 C23.3152054,14.0174742 22.680484,13.4384494 21.8175202,12.884707 C19.8841432,11.5871617 17.3058984,10.4396562 15.0007696,9.05111421 C14.6716966,8.8146729 14.6338303,8.8643038 14.3975062,8.95197984 C13.7699825,9.33962088 13.0499394,9.6369105 12.4118094,10.0642693 C11.3544138,10.6367493 11.221364,10.4925415 10.0978027,11.2246209 Z M19,6.70966881 C19.0987563,6.73842576 22.3231347,8.83924118 23.281264,9.10024943 C24.0573871,9.31161186 24.793237,9.68458703 25.5428879,9.82972965 C25.9222175,9.90317303 26.7305275,10.0516559 27.0962828,9.98177579 C28.2449841,9.55823588 28.2449841,9.47834998 28.4462258,9.10024943 C28.6350083,8.74555779 28.1723193,8.32346968 27.54325,7.91981153 C26.1338881,6.97394796 24.2544409,6.137458 22.5740855,5.12526111 C22.3342031,4.95290395 22.3066,4.98908308 22.1343283,5.05299574 C21.6768862,5.33557203 21.1520008,5.5522854 20.6868272,5.86381452 C19.916024,6.28113168 19.8190356,6.17600945 19,6.70966881 Z"  fill="#F9E6FD"></path>
                            </g>
                            <path d="M56.115875,18.697375 L56.10675,21.91225 C56.116875,18.310875 53.74525,14.70375 48.996625,11.96225 C39.561375,6.51475 24.25575,6.514875 14.8805,11.963125 C10.22375,14.66925 7.892625,18.219125 7.882625,21.774125 L7.89175,18.55925 C7.90175,15.004125 10.232875,11.454375 14.88975,8.74825 C24.264875,3.299875 39.57025,3.299875 49.005625,8.747375 C53.754375,11.489 56.126125,15.096 56.115875,18.697375 Z"  fill="#9013FE" fill-rule="nonzero"></path>
                            <path d="M54.564625,5.516875 C67.087125,12.74675 67.153375,24.50975 54.71225,31.73975 C42.2725,38.969 21.96475,38.969125 9.44225,31.73925 C-3.079,24.510125 -3.14525,12.747125 9.2945,5.517875 C21.735625,-1.71225 42.043375,-1.71225 54.564625,5.516875 Z M15.001,28.50875 C24.437625,33.956875 39.742875,33.956875 49.117,28.50925 C58.49225,23.061 58.44225,14.195375 49.00575,8.74725 C39.5705,3.299875 24.265,3.299875 14.88975,8.748125 C5.51575,14.19575 5.56575,23.06125 15.001,28.50875 Z"  fill="#F9E6FD" fill-rule="nonzero"></path>
                            <path d="M32.8482666,11.1867676 C31.9612178,11.887042 31.4154618,12.2719195 31.2109985,12.3414001 C30.7371283,12.5024305 30.4119533,12.6513461 30.2354736,12.788147 L30.2354736,9.41549683 C30.890557,9.8001715 31.3716564,10.0966091 31.678772,10.3048096 C31.9858875,10.5130101 32.3757191,10.8069961 32.8482666,11.1867676 Z"  fill="#9013FE" fill-rule="nonzero"></path>
                        </g>
                    </g>
                </g>
            </g>
        </g>
    </g>
</svg>