<svg width="43px" height="64px" viewBox="0 0 43 64" version="1.1" xmlns="http://www.w3.org/2000/svg" xmlns:xlink="http://www.w3.org/1999/xlink">
    <defs></defs>
    <g  stroke="none" stroke-width="1" fill="none" fill-rule="evenodd">
        <g  transform="translate(-339.000000, -1567.000000)" fill-rule="nonzero">
            <g  transform="translate(202.000000, 759.000000)">
                <g id="frontend" transform="translate(0.000000, 773.000000)">
                    <g >
                        <g id="television" transform="translate(137.000000, 35.000000)">
                            <polygon  fill="#F9E6FD" points="28.90425 44.45125 13.674625 35.600875 12.3205 36.75575 15.333125 49.326875 8.021125 53.548375 8.02575 55.149625 23.25525 64 32.333125 58.758875"></polygon>
                            <g  transform="translate(8.000000, 35.500000)">
                                <polygon  fill="#F9E6FD" points="15.25525 28.5 0.02575 19.649625 0.021125 18.048375 15.250625 26.898875"></polygon>
                                <polygon  fill="#B57EF2" points="22.562625 22.67725 7.333125 13.826875 4.3205 1.25575 19.549875 10.106125"></polygon>
                                <polygon  fill="#B57EF2" points="19.549875 10.106125 4.3205 1.25575 5.674625 0.100875 20.904125 8.95125"></polygon>
                                <polygon  fill="#B57EF2" points="20.904125 8.95125 24.333 23.258875 15.25525 28.5 15.250625 26.898875 22.562625 22.67725 19.549875 10.106125"></polygon>
                            </g>
                            <polygon  fill="#F9E6FD" points="42.14525 21.1965 3.73875 0 0.10475 0.79575 0.105125 0.796 0.10475 33.977625 0.10475 33.977625 0.10475 38.42925 39.161625 61.529 39.162 25.633 39.162 25.633 39.162 22.21975 8.71325 5.517625 39.1725 22.224625 39.767375 22.019 39.162 22.2305 39.162375 61.51425 42.116625 59.92175 42.121125 21.204875"></polygon>
                            <path d="M17.216125,45.279875 C16.72025,44.993625 16.317,45.2235 16.31525,45.793125 C16.313625,46.363 16.71425,47.056875 17.21025,47.34325 C17.706125,47.6295 18.109375,47.399625 18.111125,46.83 C18.112625,46.26025 17.712,45.566125 17.216125,45.279875 Z"  fill="#3726B0"></path>
                            <polygon  fill="#B57EF2" points="39.162 22.2305 39.162375 61.51425 42.116625 59.92175 42.121125 21.1965"></polygon>
                            <polygon  fill="#F9E6FD" points="3.73875 0 0.10475 0.79575 39.1725 22.224625 42.14525 21.1965"></polygon>
                            <polygon  fill="#F9E6FD" points="3.73875 0 0.10475 0.79575 39.1725 22.224625 42.14525 21.1965"></polygon>
                            <polygon  fill="#3726B0" points="39.161625 56.499625 0.10475 33.977625 0.105125 0.79575 39.162 22.21975"></polygon>
                            <polygon  fill="#9013FE" points="37.437125 53.28275 1.51625 32.44 1.516625 3.30975 37.437375 23.0545"></polygon>
                        </g>
                    </g>
                </g>
            </g>
        </g>
    </g>
</svg>