<svg width="30px" height="64px" viewBox="0 0 30 64" version="1.1" xmlns="http://www.w3.org/2000/svg" xmlns:xlink="http://www.w3.org/1999/xlink">
    <defs></defs>
    <g  stroke="none" stroke-width="1" fill="none" fill-rule="evenodd">
        <g  transform="translate(-1058.000000, -1560.000000)" fill-rule="nonzero">
            <g  transform="translate(202.000000, 759.000000)">
                <g  transform="translate(718.000000, 773.000000)">
                    <g >
                        <g  transform="translate(138.000000, 28.000000)">
                            <path d="M28.055721,12.7290108 L6.35127918,0.131632715 C6.08580842,-0.0223688502 5.84557914,-0.0366189951 5.67199732,0.0647570355 L0.278526701,3.21578907 C0.27902407,3.21553907 0.279645782,3.21528907 0.280267493,3.21503906 C0.107804754,3.31479008 0.000870395941,3.52816725 0,3.83142033 L0.0249927977,49.6147608 C0.0232520058,50.224267 0.448875621,50.9653995 0.976584246,51.2717776 L22.6560333,63.8691557 C22.9377929,64.0326574 23.1909538,64.0374074 23.3664007,63.9141562 C23.355956,63.9215312 23.3462573,63.9295313 23.3353152,63.9357814 L28.7287858,60.7847493 C28.9001295,60.6847483 29.0064421,60.4719962 29.0071882,60.1693681 L29.0071882,14.3861526 C29.0090533,13.7777714 28.5824349,13.0347639 28.055721,12.7290108 Z"  fill="#9013FE"></path>
                            <path d="M28.7359923,60.4581463 L23.4820144,63.5395683 C23.6489265,63.4417765 23.7524896,63.2337243 23.7532164,62.9375371 L29.0071942,59.8561151 C29.0064675,60.15218 28.9029044,60.3603545 28.7359923,60.4581463 Z"  fill="#3726B0"></path>
                            <path d="M0.460431655,3.15736174 L5.77650866,0.0636173893 C5.94759967,-0.0359155634 6.18438178,-0.0220472235 6.44604317,0.129277229 L1.12996616,3.22302158 C0.868304771,3.07169713 0.631400103,3.05782879 0.460431655,3.15736174 Z"  fill="#B57EF2"></path>
                            <polygon  fill="#3726B0" points="23.4820144 17.4160227 29.0071942 14.2733813 29.0071942 59.9363706 23.4820144 63.0791367"></polygon>
                            <polygon  fill="#B57EF2" points="0.920863309 3.13225237 6.32777986 0 28.0863309 12.5224239 22.6794144 15.6546763"></polygon>
                            <path d="M22.5611511,15.9096776 L28.0404537,12.8920863 C28.5755498,13.1848913 29.0089573,13.8961944 29.0071889,14.4788116 L23.5278862,17.4964029 C23.5295284,16.9137856 23.0962471,16.2023628 22.5611511,15.9096776 Z"  fill="#F9E6FD"></path>
                            <path d="M22.5357303,15.9369254 C23.0595036,16.2423131 23.4837402,16.984183 23.4820091,17.591837 L23.4820091,63.3204596 C23.480278,63.9292373 23.0533212,64.173947 22.5295479,63.8685593 L0.971132113,51.2861121 C0.446369611,50.980225 0.0231221932,50.2399783 0.0248532664,49.6312005 L0,3.90257798 C0.00173107328,3.2949239 0.427822398,3.04859115 0.952461251,3.35447824 L22.5357303,15.9369254 Z"  fill="#9013FE"></path>
                            <polyline  fill="#FF8478" points="21.1798561 20.9278477 1.84172662 9.66906475 1.84172662 44.4534473 21.1798561 55.7122302 21.1798561 20.9278477"></polyline>
                            <path d="M11.7373289,54.9302549 C11.1188083,54.5729818 10.6173703,53.7031436 10.6192731,52.9921498 C10.6213027,52.2811561 11.1260388,51.993536 11.7445594,52.3506822 C12.3630799,52.7079553 12.864518,53.5765248 12.8626152,54.2876454 C12.8607125,54.9985123 12.3559763,55.2874011 11.7373289,54.9302549 M11.7462084,51.7888906 C10.8578779,51.2759449 10.1324228,51.6882806 10.1295052,52.709224 C10.1265877,53.7301674 10.8474762,54.978847 11.7358067,55.4919196 C12.6241372,56.0048653 13.3495924,55.5913877 13.3525099,54.5704443 C13.3553006,53.549374 12.6345389,52.3019632 11.7462084,51.7888906"  fill="#F9E6FD"></path>
                            <path d="M15.5278919,14.6111487 L7.49747537,9.75365846 C7.17224954,9.55693887 6.90745419,9.71503082 6.90647753,10.1064235 C6.90550088,10.4992232 7.16834292,10.976313 7.49369083,11.1730325 L15.5241074,16.0305228 C15.8493332,16.2272424 16.1141285,16.0692784 16.1151052,15.6764787 C16.1160819,15.2852139 15.8531177,14.8078683 15.5278919,14.6111487"  fill="#3726B0"></path>
                            <path d="M6.21795828,8.82191486 C5.83556526,8.65044431 5.52635891,8.78844326 5.52518322,9.12887114 C5.52400753,9.47032715 5.83115642,9.88409553 6.21354945,10.0557946 C6.59461982,10.2268082 6.90514882,10.0902943 6.90647147,9.74895252 C6.90764716,9.40829617 6.59917562,8.99292846 6.21795828,8.82191486"  fill="#B57EF2"></path>
                            <g  transform="translate(25.323741, 19.798561)" fill="#9013FE">
                                <path d="M0.264682425,13.1564244 L0.751819116,13.4240675 C0.738532374,13.4167297 0.727745118,13.4057852 0.715905447,13.3960843 C0.812464543,13.4744371 0.958881809,13.4801581 1.12516341,13.3894928 L2.13298253,12.8394066 C2.42331757,12.6808355 2.65826927,12.2962851 2.65721686,11.9810085 L2.63156423,0.738754651 C2.63116958,0.582049119 2.57210277,0.472106508 2.47725385,0.420493178 C2.47764851,0.420617547 2.47804317,0.420617547 2.47830627,0.420866286 L1.99116958,0.153347556 C1.89553135,0.10086364 1.76305858,0.108077069 1.61677287,0.187922269 L0.608953751,0.738008435 C0.318618705,0.896455139 0.0847194245,1.28050806 0.0855087359,1.59503845 L0.111161357,12.8372923 C0.111556012,12.9941222 0.170096608,13.1045623 0.264682425,13.1564244 Z" ></path>
                                <path d="M2.47699075,14.6574395 C2.47738541,14.6575639 2.47778006,14.6575639 2.47804317,14.6578126 L1.99090647,14.3902939 C1.89526824,14.33781 1.76266393,14.3450234 1.61650976,14.4248686 L0.608690647,14.9749548 C0.318355601,15.1334015 0.0844563207,15.5174544 0.0852456321,15.8319848 L0.110898253,20.966454 C0.111292909,21.1234083 0.169833505,21.2338483 0.264419322,21.2857104 L0.751556012,21.5533535 C0.73826927,21.5460157 0.727482014,21.5350712 0.715642343,21.5253704 C0.812069887,21.6037231 0.958618705,21.6094441 1.12490031,21.5187788 L2.13271942,20.9686926 C2.42305447,20.8101216 2.65800617,20.4255712 2.65695375,20.1102946 L2.63130113,14.9758254 C2.63103803,14.8189955 2.57183967,14.7090528 2.47699075,14.6574395 Z" ></path>
                            </g>
                            <g  transform="translate(25.323741, 19.798561)" fill="#B57EF2">
                                <path d="M0.692343809,13.344729 L0.243665278,13.0787914 C0.156667929,13.0272358 0.102748959,12.9173248 0.102264294,12.7614218 L0.550942825,13.0273594 C0.55142749,13.1832625 0.60534646,13.2930498 0.692343809,13.344729 Z" ></path>
                                <path d="M1.83397198,0.15519081 L2.28265051,0.443982477 C2.19456267,0.38732507 2.07254828,0.395112107 1.93781144,0.481306551 L1.4891329,0.192514884 C1.62362741,0.10632044 1.74576297,0.0983991436 1.83397198,0.15519081 Z" ></path>
                            </g>
                            <polygon  fill="#F9E6FD" points="25.823741 33.1510791 25.3488821 32.8835367 25.323741 21.6402878 25.7987282 21.9078302"></polygon>
                            <polygon  fill="#B57EF2" points="26.2341906 20.7194245 25.7841727 20.4181198 26.7154497 19.7985612 27.1654676 20.0998658"></polygon>
                            <path d="M25.7676315,21.6402878 L25.3237435,21.4212237 C25.3229044,21.1636631 25.5360377,20.8492741 25.8007163,20.7194245 L26.2446043,20.9384885 C25.9800456,21.0683382 25.7667924,21.382829 25.7676315,21.6402878 Z"  fill="#F9E6FD"></path>
                            <path d="M27.1370183,20.3262154 C27.3935459,20.1699301 27.6024177,20.2955472 27.6032313,20.6056644 L27.6258969,31.6945628 C27.6267105,32.0056614 27.4192335,32.3850888 27.1627059,32.5413741 L26.2722401,33.0839566 C26.0157124,33.2402419 25.807538,33.1142568 25.8068406,32.8031582 L25.7841751,21.7142598 C25.7833614,21.4040199 25.9900248,21.0253285 26.2466687,20.8689205 L27.1370183,20.3262154 Z"  fill="#9013FE"></path>
                            <g  transform="translate(25.323741, 34.071942)" fill="#B57EF2">
                                <path d="M0.692343809,7.27962736 L0.243665278,7.01104743 C0.156667929,6.95897964 0.102748959,6.84797659 0.102264294,6.69052457 L0.550942825,6.9591045 C0.55142749,7.11655652 0.60534646,7.22755957 0.692343809,7.27962736 Z" ></path>
                                <path d="M1.83397198,0.0909254877 L2.28265051,0.382586505 C2.19456267,0.325366166 2.07254828,0.333230572 1.93781144,0.42028142 L1.4891329,0.128620403 C1.62362741,0.0415695555 1.74576297,0.0337051487 1.83397198,0.0909254877 Z" ></path>
                            </g>
                            <polygon  fill="#F9E6FD" points="25.823741 41.4388489 25.3488821 41.1649876 25.323741 35.9136691 25.7987282 36.1874031"></polygon>
                            <polygon  fill="#B57EF2" points="26.2341906 35.4532374 25.7841727 35.1518385 26.7154497 34.5323741 27.1654676 34.833773"></polygon>
                            <path d="M25.7676315,35.9136691 L25.3237435,35.694605 C25.3229044,35.4370444 25.5360377,35.1226554 25.8007163,34.9928058 L26.2446043,35.2118698 C25.9800456,35.3416176 25.7667924,35.6562103 25.7676315,35.9136691 Z"  fill="#F9E6FD"></path>
                            <path d="M27.1370183,34.5999783 C27.3935459,34.4428059 27.6024177,34.569136 27.6032313,34.8810134 L27.6258969,39.9741888 C27.6267105,40.2870532 27.4192335,40.6686342 27.1627059,40.8256832 L26.2722401,41.3713454 C26.0157124,41.5285178 25.807538,41.4018176 25.8068406,41.0889532 L25.7841751,35.9957778 C25.7833614,35.683777 25.9900248,35.3029361 26.2466687,35.1456404 L27.1370183,34.5999783 Z"  fill="#9013FE"></path>
                        </g>
                    </g>
                </g>
            </g>
        </g>
    </g>
</svg>