<svg id="Layer_1" data-name="Layer 1" xmlns="http://www.w3.org/2000/svg" viewBox="0 0 54.06 12.94"><defs><style>.cls-1{fill:#b3b3b3;}</style></defs><title>Share</title><path class="cls-1" d="M178.38,182a.77.77,0,0,0-.3-.65,4,4,0,0,0-1.08-.48,7.1,7.1,0,0,1-1.23-.49,2,2,0,0,1-1.24-1.81,1.77,1.77,0,0,1,.33-1.05,2.24,2.24,0,0,1,1-.72,3.62,3.62,0,0,1,1.39-.26,3.38,3.38,0,0,1,1.39.28,2.27,2.27,0,0,1,1,.8,2.11,2.11,0,0,1,.34,1.17h-1.5a1,1,0,0,0-.32-.78,1.3,1.3,0,0,0-.88-.27,1.37,1.37,0,0,0-.86.23.73.73,0,0,0-.3.61.69.69,0,0,0,.36.59,3.94,3.94,0,0,0,1.05.45,4.59,4.59,0,0,1,1.86,1,1.89,1.89,0,0,1,.59,1.41,1.76,1.76,0,0,1-.72,1.49,3.17,3.17,0,0,1-1.92.53,3.8,3.8,0,0,1-1.53-.3,2.43,2.43,0,0,1-1.05-.85,2.14,2.14,0,0,1-.36-1.23h1.5q0,1.2,1.44,1.2a1.36,1.36,0,0,0,.83-.22A.71.71,0,0,0,178.38,182Z" transform="translate(-153.46 -173.2)"/><path class="cls-1" d="M187.07,183.87h-1.5v-3.11h-2.92v3.11h-1.49V176.6h1.49v3h2.92v-3h1.5Z" transform="translate(-153.46 -173.2)"/><path class="cls-1" d="M192.83,182.37H190.2l-.49,1.5h-1.6l2.71-7.27h1.39l2.72,7.27h-1.59Zm-2.22-1.21h1.82l-.92-2.72Z" transform="translate(-153.46 -173.2)"/><path class="cls-1" d="M198.55,181.21h-1.19v2.66h-1.5V176.6h2.7a3,3,0,0,1,2,.58,2,2,0,0,1,.7,1.62,2.28,2.28,0,0,1-.32,1.24,2.25,2.25,0,0,1-1,.79l1.58,3v.07h-1.61ZM197.36,180h1.21a1.22,1.22,0,0,0,.87-.29,1,1,0,0,0,.31-.79,1.09,1.09,0,0,0-.29-.81,1.19,1.19,0,0,0-.9-.29h-1.2Z" transform="translate(-153.46 -173.2)"/><path class="cls-1" d="M207,180.72h-2.88v1.95h3.38v1.2h-4.87V176.6h4.86v1.22h-3.37v1.73H207Z" transform="translate(-153.46 -173.2)"/><path class="cls-1" d="M165.68,173.2h-11.5a.72.72,0,0,0-.72.72v11.51a.71.71,0,0,0,.72.71h6.19v-5h-1.69v-1.95h1.69v-1.44a2.35,2.35,0,0,1,2.51-2.58c.72,0,1.33.05,1.51.07V177h-1c-.81,0-1,.39-1,1v1.25h1.93l-.25,1.95h-1.68v5h3.29a.71.71,0,0,0,.72-.71V173.92a.72.72,0,0,0-.72-.72Zm0,0" transform="translate(-153.46 -173.2)"/></svg>