<svg width="70px" height="70px" viewBox="0 0 70 70" version="1.1" xmlns="http://www.w3.org/2000/svg" xmlns:xlink="http://www.w3.org/1999/xlink">
    <g stroke="none" stroke-width="1" fill="none" fill-rule="evenodd">
        <g transform="translate(-155.000000, -98.000000)" fill-rule="nonzero">
            <g transform="translate(155.000000, 98.000000)">
                <path d="M69.8582219,14.4406993 L69.8582219,20.5682942 L63.7300952,24.653712 L57.6025004,20.5682942 L57.6025004,14.4406993 C57.6025004,11.0500152 60.3394111,8.3131045 63.7300952,8.3131045 C67.1213112,8.3131045 69.8582219,11.0500152 69.8582219,14.4406993 Z" id="Path" fill="#7C8388"></path>
                <path d="M69.8582219,14.4406993 L69.8582219,20.5682942 L63.7300952,24.653712 L63.7300952,8.3131045 C67.1207793,8.3131045 69.8582219,11.0500152 69.8582219,14.4406993 Z" id="Path" fill="#575F64"></path>
                <polygon fill="#F9E6FD" points="69.8582219 20.5682942 69.8582219 28.7385978 63.7300952 32.8240156 57.6025004 28.7385978 57.6025004 20.5682942"></polygon>
                <polygon fill="#BBDCFF" points="69.8582219 20.5682942 69.8582219 28.7385978 63.7300952 32.8240156 63.7300952 20.5682942"></polygon>
                <path d="M53.5176144,15.9110242 L53.5176144,67.8197687 C53.5176144,68.9640049 52.6186098,69.8624776 51.4749055,69.8624776 L2.1807221,69.8624776 C1.0364859,69.8624776 0.138013185,68.9640049 0.138013185,67.8197687 L0.138013185,6.27039558 C0.138013185,5.24904112 0.914136216,4.39099702 1.93549068,4.22768666 L26.8278138,1.12319467 L32.4654777,0.428460791 L53.5176144,15.9110242 Z" id="Path" fill="#F9E6FD"></path>
                <path d="M53.5176144,15.9110242 L53.5176144,67.8197687 C53.5176144,68.9640049 52.6186098,69.8624776 51.4749055,69.8624776 L26.8278138,69.8624776 L26.8278138,1.12319467 L32.4654777,0.428460791 L53.5176144,15.9110242 Z" id="Path" fill="#BBDCFF"></path>
                <g transform="translate(32.412814, 0.138013)" fill="#9ABADB">
                    <path d="M20.2866529,12.6690509 C19.2918962,11.9227174 3.96945162,0.53301929 4.39022827,0.848468973 C3.98115457,0.609620875 3.43004872,-0.131924951 2.33209268,0.0207462965 L0.0457482366,0.306406338 L4.68971922,18.8822906 C4.98016683,20.0494007 6.20632424,20.7015782 7.31651516,20.3244218 L21.1048004,15.7740748 L21.1048004,14.3026861 C21.1048004,13.6606159 20.8015858,13.0536548 20.2866529,12.6690509 Z" id="Path"></path>
                    <path d="M10.7556072,36.7708883 L2.58530347,36.7708883 C1.45596203,36.7708883 0.542594556,35.8575209 0.542594556,34.7281794 C0.542594556,33.5993699 1.45596203,32.6860024 2.58530347,32.6860024 L10.7556072,32.6860024 C11.8844166,32.6860024 12.7983161,33.5993699 12.7983161,34.7281794 C12.7983161,35.8575209 11.8844166,36.7708883 10.7556072,36.7708883 Z" id="Path"></path>
                    <path d="M10.7556072,44.9411921 L2.58530347,44.9411921 C1.45596203,44.9411921 0.542594556,44.0278246 0.542594556,42.8984832 C0.542594556,41.7696737 1.45596203,40.8563062 2.58530347,40.8563062 L10.7556072,40.8563062 C11.8844166,40.8563062 12.7983161,41.7696737 12.7983161,42.8984832 C12.7983161,44.0278246 11.8844166,44.9411921 10.7556072,44.9411921 L10.7556072,44.9411921 Z" id="Path"></path>
                </g>
                <path d="M45.2111302,51.2068 C45.2111302,52.3510362 44.3121255,53.2495089 43.1684213,53.2495089 L10.4872064,53.2495089 C9.34297025,53.2495089 8.44449753,52.3510362 8.44449753,51.2068 C8.44449753,50.0630958 9.34297025,49.1646231 10.4872064,49.1646231 L43.1684213,49.1646231 C44.3121255,49.1646231 45.2111302,50.0630958 45.2111302,51.2068 Z" id="Path" fill="#BBDCFF"></path>
                <path d="M37.0408265,59.3771037 C37.0408265,60.5213399 36.1418217,61.4198126 34.9981176,61.4198126 L18.6575102,61.4198126 C17.513274,61.4198126 16.6148013,60.5213399 16.6148013,59.3771037 C16.6148013,58.2333996 17.513274,57.3349267 18.6575102,57.3349267 L34.9981176,57.3349267 C36.1418217,57.3349267 37.0408265,58.2333996 37.0408265,59.3771037 L37.0408265,59.3771037 Z" id="Path" fill="#BBDCFF"></path>
                <path d="M28.8705227,26.6958889 C28.8705227,24.8984114 28.0938678,23.3052049 26.8278138,22.2024613 C26.2559617,21.6306092 25.5612279,21.2220674 24.7851049,20.9364072 L24.7851049,18.5255852 C24.7851049,17.381881 23.8866322,16.4834083 22.742396,16.4834083 C21.5986918,16.4834083 20.7002191,17.381881 20.7002191,18.5255852 L20.7002191,20.5682942 L16.6148013,20.5682942 L16.6148013,18.5255852 C16.6148013,17.381881 15.7163284,16.4834083 14.5720924,16.4834083 C13.4283881,16.4834083 12.5299154,17.381881 12.5299154,18.5255852 L12.5299154,20.5682942 L10.4872064,20.5682942 C9.34297025,20.5682942 8.44449753,21.4667669 8.44449753,22.6110031 C8.44449753,23.7547072 9.34297025,24.653712 10.4872064,24.653712 L12.5299154,24.653712 L12.5299154,36.9089015 L10.4872064,36.9089015 C9.34297025,36.9089015 8.44449753,37.8073742 8.44449753,38.9516105 C8.44449753,40.0953146 9.34297025,40.9943194 10.4872064,40.9943194 L12.5299154,40.9943194 L12.5299154,43.0364964 C12.5299154,44.1807324 13.4283881,45.0792053 14.5720924,45.0792053 C15.7163284,45.0792053 16.6148013,44.1807324 16.6148013,43.0364964 L16.6148013,40.9943194 L20.7002191,40.9943194 L20.7002191,43.0364964 C20.7002191,44.1807324 21.5986918,45.0792053 22.742396,45.0792053 C23.8866322,45.0792053 24.7851049,44.1807324 24.7851049,43.0364964 L24.7851049,40.6262062 C25.5612279,40.3405462 26.2559617,39.9320044 26.8278138,39.3601522 C28.0938678,38.2568766 28.8705227,36.6636701 28.8705227,34.8661926 C28.8705227,33.272986 28.2571781,31.8845824 27.2773161,30.7813067 C28.2571781,29.6780312 28.8705227,28.2896274 28.8705227,26.6958889 Z M22.742396,36.9089015 L16.6148013,36.9089015 L16.6148013,32.8240156 L22.742396,32.8240156 C23.8866322,32.8240156 24.7851049,33.7224885 24.7851049,34.8661926 C24.7851049,36.0104288 23.8866322,36.9089015 22.742396,36.9089015 Z M22.742396,28.7385978 L16.6148013,28.7385978 L16.6148013,24.653712 L22.742396,24.653712 C23.8866322,24.653712 24.7851049,25.5521847 24.7851049,26.6958889 C24.7851049,27.8401251 23.8866322,28.7385978 22.742396,28.7385978 Z" id="Shape" fill="#9013FE"></path>
                <path d="M28.8705227,34.8661926 C28.8705227,36.6636701 28.0938678,38.2568766 26.8278138,39.3601522 L26.8278138,22.2024613 C28.0938678,23.3052049 28.8705227,24.8984114 28.8705227,26.6958889 C28.8705227,28.2890955 28.2571781,29.6780312 27.2773161,30.7813067 C28.2571781,31.8845824 28.8705227,33.272986 28.8705227,34.8661926 Z" id="Path" fill="#3726B0"></path>
                <path d="M37.0408265,59.3771037 C37.0408265,60.5213399 36.1418217,61.4198126 34.9981176,61.4198126 L26.8278138,61.4198126 L26.8278138,57.3349267 L34.9981176,57.3349267 C36.1418217,57.3349267 37.0408265,58.2333996 37.0408265,59.3771037 L37.0408265,59.3771037 Z" id="Path" fill="#9ABADB"></path>
                <path d="M45.2111302,51.2068 C45.2111302,52.3510362 44.3121255,53.2495089 43.1684213,53.2495089 L26.8278138,53.2495089 L26.8278138,49.1646231 L43.1684213,49.1646231 C44.3121255,49.1646231 45.2111302,50.0630958 45.2111302,51.2068 Z" id="Path" fill="#9ABADB"></path>
                <polygon fill="#9013FE" points="69.8582219 28.7385978 69.8582219 57.3349267 63.7300952 61.4198126 57.6025004 57.3349267 57.6025004 28.7385978"></polygon>
                <polygon fill="#3726B0" points="63.7300952 28.7385978 69.8582219 28.7385978 69.8582219 57.3349267 63.7300952 61.4198126"></polygon>
                <path d="M69.8582219,57.3349267 L69.8582219,59.3771037 C69.8582219,59.7042564 69.7763009,59.9904483 69.6539511,60.2761085 L65.5685332,68.7187733 C65.200952,69.4129753 64.5062182,69.8624776 63.7300952,69.8624776 C62.9539722,69.8624776 62.2597703,69.4129753 61.8921891,68.7187733 L57.8067713,60.2761085 C57.6844216,59.9904483 57.6025004,59.7042564 57.6025004,59.3771037 L57.6025004,57.3349267 L69.8582219,57.3349267 Z" id="Path" fill="#FDE4E4"></path>
                <path d="M63.7300952,57.3349267 L69.8582219,57.3349267 L69.8582219,59.3771037 C69.8582219,59.7042564 69.7763009,59.9904483 69.6539511,60.2761085 L65.5685332,68.7187733 C65.200952,69.4129753 64.5062182,69.8624776 63.7300952,69.8624776 L63.7300952,57.3349267 Z" id="Path" fill="#FCCED3"></path>
            </g>
        </g>
    </g>
</svg>