<svg id="Layer_1" data-name="Layer 1" xmlns="http://www.w3.org/2000/svg" viewBox="0 0 54.06 10.4"><defs><style>.cls-1{fill:#b3b3b3;}</style></defs><title>tweet</title><path class="cls-1" d="M162.8,175.23a5.45,5.45,0,0,1-1.51.42,2.64,2.64,0,0,0,1.16-1.46,5.36,5.36,0,0,1-1.67.64,2.62,2.62,0,0,0-4.54,1.79,2.91,2.91,0,0,0,.06.6,7.46,7.46,0,0,1-5.41-2.74,2.59,2.59,0,0,0-.36,1.32A2.61,2.61,0,0,0,151.7,178a2.6,2.6,0,0,1-1.18-.32v0a2.64,2.64,0,0,0,2.1,2.58,3.1,3.1,0,0,1-.69.09,2.83,2.83,0,0,1-.5-.05,2.64,2.64,0,0,0,2.46,1.82,5.26,5.26,0,0,1-3.27,1.12c-.21,0-.41,0-.62,0a7.47,7.47,0,0,0,11.5-6.29v-.34a5.3,5.3,0,0,0,1.31-1.36Zm0,0" transform="translate(-150 -174)"/><path class="cls-1" d="M176.08,177.15h-2.22v6.06h-1.5v-6.06h-2.2v-1.21h5.92Z" transform="translate(-150 -174)"/><path class="cls-1" d="M182.93,181.11l1-5.17h1.49l-1.61,7.27h-1.51l-1.18-4.86-1.18,4.86h-1.51l-1.62-7.27h1.5l1,5.16,1.2-5.16h1.27Z" transform="translate(-150 -174)"/><path class="cls-1" d="M190.84,180.06H188V182h3.37v1.2h-4.87v-7.27h4.86v1.21H188v1.74h2.87Z" transform="translate(-150 -174)"/><path class="cls-1" d="M196.85,180.06H194V182h3.37v1.2h-4.87v-7.27h4.86v1.21H194v1.74h2.87Z" transform="translate(-150 -174)"/><path class="cls-1" d="M204.06,177.15h-2.23v6.06h-1.5v-6.06h-2.19v-1.21h5.92Z" transform="translate(-150 -174)"/></svg>